<?xml version="1.0" standalone="no"?>
<!DOCTYPE svg PUBLIC "-//W3C//DTD SVG 20010904//EN"
 "http://www.w3.org/TR/2001/REC-SVG-20010904/DTD/svg10.dtd">
<svg version="1.0" xmlns="http://www.w3.org/2000/svg"
 width="512.000000pt" height="512.000000pt" viewBox="0 0 512.000000 512.000000"
 preserveAspectRatio="xMidYMid meet">

<g transform="translate(0.000000,512.000000) scale(0.100000,-0.100000)"
fill="#000000" stroke="none">
<path d="M110 2560 l0 -2450 2450 0 2450 0 0 105 0 105 -2345 0 -2345 0 1 603
1 602 23 -153 c13 -85 25 -156 28 -158 5 -5 247 379 247 393 0 5 -33 42 -74
82 l-74 74 -76 -103 -76 -103 0 329 c0 320 0 328 19 309 10 -11 235 -297 501
-635 266 -338 493 -625 505 -638 l22 -23 603 843 c332 464 750 1047 928 1296
313 437 325 453 342 435 10 -10 327 -394 704 -853 378 -459 693 -839 700 -844
9 -7 48 19 134 89 105 85 119 100 109 115 -7 9 -397 468 -866 1019 -810 949
-856 1001 -872 984 -13 -14 -1385 -1941 -1762 -2476 l-70 -99 -23 24 c-13 12
-237 275 -498 583 l-475 560 -1 1218 0 1217 -105 0 -105 0 0 -2450z"/>
<path d="M4309 3868 c-189 -243 -349 -449 -356 -458 -10 -14 0 -28 65 -93 l77
-76 378 454 c207 249 377 457 377 462 0 4 -28 28 -62 53 -34 25 -78 57 -99 72
l-36 28 -344 -442z"/>
<path d="M1082 2549 l-203 -278 51 -102 c28 -55 53 -99 56 -97 2 3 70 92 150
199 80 107 149 194 153 194 4 0 86 -89 182 -198 l174 -198 22 88 c12 48 23 96
23 106 0 16 -345 502 -389 549 -15 15 -32 -5 -219 -263z"/>
<path d="M3049 2158 c-294 -370 -556 -701 -583 -735 -27 -35 -52 -63 -56 -63
-4 0 -62 67 -130 149 l-123 150 -102 -51 -103 -51 227 -303 c124 -167 228
-303 231 -303 5 0 1246 1686 1263 1716 6 10 -7 38 -41 89 l-49 76 -534 -674z"/>
</g>
</svg>
