<?xml version="1.0" standalone="no"?>
<!DOCTYPE svg PUBLIC "-//W3C//DTD SVG 20010904//EN"
 "http://www.w3.org/TR/2001/REC-SVG-20010904/DTD/svg10.dtd">
<svg version="1.0" xmlns="http://www.w3.org/2000/svg"
 width="512.000000pt" height="512.000000pt" viewBox="0 0 512.000000 512.000000"
 preserveAspectRatio="xMidYMid meet">

<g transform="translate(0.000000,512.000000) scale(0.100000,-0.100000)"
fill="#000000" stroke="none">
<path d="M2420 4969 c-352 -17 -727 -126 -1034 -300 -642 -364 -1076 -974
-1207 -1697 -27 -149 -37 -486 -19 -659 74 -718 461 -1358 1069 -1766 703
-472 1638 -529 2401 -147 627 314 1095 889 1265 1555 59 231 70 323 70 590 0
144 -5 276 -13 330 -100 693 -472 1295 -1042 1684 -436 298 -939 436 -1490
410z m136 -313 l89 -145 3 145 3 144 44 0 45 0 0 -225 0 -225 -49 0 -48 0 -83
135 c-46 75 -87 138 -92 141 -4 3 -8 -58 -8 -135 l0 -141 -40 0 -40 0 0 225 0
225 44 0 43 0 89 -144z m324 -465 c321 -68 596 -211 823 -430 260 -251 418
-540 489 -893 19 -95 23 -145 23 -318 0 -177 -3 -220 -23 -312 -69 -322 -212
-594 -431 -821 -257 -266 -524 -412 -904 -494 -65 -14 -127 -18 -307 -17 -195
0 -238 3 -320 22 -154 36 -277 79 -405 142 -464 229 -784 643 -897 1163 -19
89 -22 132 -22 332 -1 201 2 242 21 328 152 671 656 1169 1314 1296 57 11 115
22 129 25 14 2 111 3 215 2 150 -3 212 -8 295 -25z m-2495 -1479 c18 -78 34
-144 36 -147 3 -2 22 63 43 146 l39 149 56 0 57 0 39 -157 38 -158 35 158 35
157 44 0 c28 0 43 -4 43 -12 0 -7 -23 -109 -52 -226 l-52 -213 -50 3 -50 3
-42 159 c-24 87 -44 160 -46 161 -2 2 -23 -70 -47 -161 l-44 -165 -51 3 -51 3
-52 215 c-29 118 -52 219 -53 223 0 4 21 7 47 5 l47 -3 31 -143z m4355 113 l0
-34 -122 -3 -123 -3 0 -50 0 -50 113 -3 112 -3 0 -34 0 -35 -115 0 -115 0 0
-65 0 -65 130 0 130 0 0 -35 0 -35 -175 0 -175 0 0 225 0 225 170 0 170 0 0
-35z m-2081 -2110 c32 -16 55 -47 65 -87 6 -28 6 -28 -44 -28 -31 0 -50 4 -50
12 0 26 -34 48 -72 48 -52 0 -78 -15 -78 -45 0 -24 32 -41 126 -65 52 -13 105
-48 121 -80 31 -60 4 -142 -59 -180 -40 -24 -164 -28 -206 -6 -37 19 -67 55
-81 95 -13 40 -4 51 45 51 25 0 33 -6 47 -34 22 -47 76 -65 130 -43 42 18 59
59 35 83 -7 8 -47 23 -88 35 -121 33 -160 68 -160 140 0 86 72 134 188 123 30
-2 66 -11 81 -19z"/>
<path d="M2391 3438 c-90 -271 -169 -503 -177 -515 -10 -17 -122 -57 -518
-189 -278 -93 -503 -171 -500 -174 3 -3 233 -81 512 -175 l507 -170 170 -508
c93 -279 173 -507 176 -507 4 0 83 228 175 508 l169 507 508 170 c279 93 507
173 507 177 0 4 -222 80 -492 169 -271 89 -501 169 -510 177 -10 8 -89 231
-185 518 -92 277 -170 504 -173 504 -3 0 -79 -222 -169 -492z m229 -605 l51
-158 159 -54 c88 -30 160 -57 160 -60 0 -4 -72 -30 -159 -59 l-160 -53 -53
-160 c-29 -87 -55 -159 -58 -159 -3 0 -29 72 -58 159 l-53 160 -157 52 c-86
28 -160 54 -164 58 -4 4 66 31 157 61 l165 54 52 158 c29 87 56 158 59 158 4
0 30 -71 59 -157z"/>
<path d="M1826 3168 c69 -139 128 -255 129 -256 2 -2 41 16 87 40 82 43 83 44
125 123 23 44 42 83 43 87 0 7 -492 258 -505 258 -3 0 52 -114 121 -252z"/>
<path d="M3160 3295 c-135 -69 -246 -128 -247 -132 -2 -5 17 -44 41 -88 43
-79 44 -81 126 -122 46 -24 84 -42 86 -40 12 13 252 507 247 507 -5 -1 -118
-57 -253 -125z"/>
<path d="M1827 1955 l-127 -255 253 126 c138 69 253 127 255 129 2 1 -16 41
-39 87 l-42 85 -84 42 c-46 22 -84 41 -86 41 -1 0 -60 -115 -130 -255z"/>
<path d="M3075 2167 c-79 -42 -80 -43 -123 -125 -24 -46 -42 -85 -40 -87 1 -1
117 -60 255 -129 l253 -126 -127 255 c-70 140 -130 255 -133 255 -3 -1 -41
-20 -85 -43z"/>
</g>
</svg>
