<?xml version="1.0" standalone="no"?>
<!DOCTYPE svg PUBLIC "-//W3C//DTD SVG 20010904//EN"
 "http://www.w3.org/TR/2001/REC-SVG-20010904/DTD/svg10.dtd">
<svg version="1.0" xmlns="http://www.w3.org/2000/svg"
 width="512.000000pt" height="512.000000pt" viewBox="0 0 512.000000 512.000000"
 preserveAspectRatio="xMidYMid meet">

<g transform="translate(0.000000,512.000000) scale(0.100000,-0.100000)"
fill="#000000" stroke="none">
<path d="M2508 4855 c-88 -22 -141 -78 -160 -168 -10 -48 -9 -64 5 -111 19
-59 75 -120 122 -132 l25 -6 0 -233 c0 -177 -3 -234 -12 -238 -7 -3 -57 -23
-110 -46 l-98 -40 0 119 c0 114 -1 120 -27 152 -51 62 -266 303 -295 331 l-28
27 -160 0 c-134 0 -160 2 -160 15 0 28 -73 92 -119 105 -143 38 -274 -92 -232
-231 42 -139 214 -182 314 -78 20 22 37 46 37 54 0 12 24 15 138 15 l139 0
137 -155 137 -155 -3 -126 -3 -127 -174 -74 c-96 -40 -180 -78 -187 -84 -10
-8 -14 -50 -16 -149 l-3 -139 -158 66 -157 66 -138 -57 c-75 -31 -140 -56
-144 -56 -5 0 -8 89 -8 198 l1 197 43 26 c77 47 107 149 67 234 -33 72 -86
105 -167 105 -59 0 -103 -19 -141 -63 -76 -87 -48 -236 53 -285 l34 -16 -2
-225 -3 -226 -175 -72 c-97 -40 -183 -82 -192 -94 -17 -19 -18 -56 -18 -449 0
-393 1 -429 18 -449 9 -11 80 -47 158 -78 78 -32 141 -62 141 -68 -1 -5 -66
-37 -146 -71 -110 -45 -149 -66 -159 -85 -9 -18 -11 -125 -10 -451 3 -375 5
-429 19 -443 16 -16 744 -325 765 -325 6 0 80 29 165 64 l154 65 3 -148 c2
-126 5 -151 20 -164 24 -21 734 -317 762 -317 29 0 761 306 772 323 4 6 8 72
8 145 0 72 4 132 8 132 5 0 74 -27 153 -60 79 -33 152 -60 162 -60 21 0 755
304 771 320 8 8 11 139 11 456 0 417 -1 446 -18 459 -10 7 -83 39 -162 71 -80
33 -145 61 -145 64 0 3 66 32 146 65 80 33 153 68 162 78 15 17 17 60 20 441
1 233 -1 433 -6 447 -7 19 -43 39 -183 99 l-174 75 -2 240 -3 240 45 27 c118
71 113 250 -10 320 -94 53 -226 6 -264 -95 -31 -80 4 -183 75 -226 l43 -26 1
-212 c0 -164 -3 -213 -12 -213 -7 0 -76 27 -152 59 -160 68 -125 70 -331 -18
-65 -28 -123 -51 -127 -51 -4 0 -8 67 -8 149 0 141 -1 151 -21 165 -12 8 -100
47 -195 87 l-174 72 0 122 0 122 138 156 137 156 110 1 110 0 19 -35 c26 -47
81 -83 141 -90 43 -5 58 -2 105 22 68 35 100 84 100 158 0 79 -33 134 -100
168 -47 24 -62 27 -105 22 -60 -7 -115 -43 -141 -90 l-19 -35 -125 -1 c-69 0
-132 -3 -141 -7 -9 -4 -54 -50 -101 -102 -46 -52 -118 -134 -161 -182 l-77
-88 0 -126 c0 -97 -3 -125 -12 -121 -7 3 -57 24 -110 47 l-98 42 0 234 c0 190
3 234 13 234 27 0 97 60 119 102 53 102 12 244 -85 294 -46 24 -110 32 -159
19z m125 -145 c37 -41 37 -89 -2 -132 -24 -27 -36 -33 -71 -33 -82 0 -129 96
-79 159 43 54 105 57 152 6z m-1148 -215 c30 -30 31 -54 4 -89 -40 -50 -119
-21 -119 44 0 64 70 91 115 45z m2190 0 c30 -30 31 -54 4 -89 -40 -50 -119
-24 -119 40 0 68 68 97 115 49z m-2515 -465 c45 -45 18 -120 -44 -120 -37 0
-49 7 -65 37 -17 33 -14 51 14 78 29 30 68 32 95 5z m2908 3 c32 -27 37 -64
12 -96 -53 -66 -154 -2 -115 73 22 43 67 53 103 23z m-1225 -283 c152 -63 277
-117 277 -120 0 -3 -126 -58 -280 -123 l-280 -117 -280 117 c-154 65 -280 120
-280 123 0 6 552 238 561 236 3 0 130 -53 282 -116z m-731 -299 c117 -49 252
-106 301 -127 l87 -37 0 -152 0 -153 -121 -51 c-67 -28 -125 -51 -130 -51 -5
0 -9 64 -9 143 0 163 -2 167 -90 201 -25 10 -93 38 -152 63 l-108 45 0 104 c0
57 2 104 5 104 3 0 100 -40 217 -89z m1116 -28 l-3 -117 -159 -67 c-88 -36
-165 -75 -173 -85 -9 -13 -13 -55 -13 -146 0 -70 -4 -128 -9 -128 -5 0 -63 23
-130 51 l-121 51 2 156 3 155 295 123 c162 68 299 123 303 123 4 1 6 -52 5
-116z m-1468 -163 c135 -56 248 -105 253 -109 4 -4 -120 -60 -275 -124 l-282
-117 -282 117 c-156 65 -281 120 -278 123 3 2 130 57 282 121 259 109 279 116
307 104 17 -6 140 -58 275 -115z m2198 -21 c149 -63 268 -116 264 -120 -12
-10 -546 -229 -559 -229 -14 0 -545 219 -556 229 -9 9 543 242 564 237 9 -2
138 -55 287 -117z m-2858 -309 c135 -56 257 -109 273 -116 l27 -15 0 -350 c0
-277 -3 -350 -12 -346 -7 3 -145 60 -305 127 l-293 123 0 353 0 354 33 -14
c17 -7 142 -59 277 -116z m1020 12 l0 -118 -152 -64 c-84 -34 -161 -70 -170
-78 -16 -13 -18 -41 -20 -235 l-3 -220 -125 -58 c-69 -32 -127 -58 -130 -59
-3 0 -3 158 0 351 l5 350 295 124 c162 68 296 124 298 124 1 1 2 -52 2 -117z
m1197 -40 l283 -117 0 -352 c0 -194 -3 -353 -7 -352 -5 0 -62 24 -128 52
l-120 52 -3 241 c-2 214 -4 243 -20 256 -9 8 -86 44 -169 78 l-153 64 0 104
c0 95 2 104 18 98 9 -4 144 -60 299 -124z m1011 -223 l-3 -351 -295 -124
c-162 -68 -298 -124 -303 -124 -4 0 -6 158 -5 352 l3 352 290 122 c160 67 296
122 303 123 10 1 12 -72 10 -350z m-1475 79 c148 -61 265 -114 260 -119 -13
-13 -537 -232 -553 -231 -18 1 -541 219 -553 231 -4 4 48 31 115 59 368 155
434 181 448 176 8 -3 136 -55 283 -116z m-643 -336 l285 -119 3 -351 c1 -194
-1 -352 -6 -352 -5 0 -141 56 -303 124 l-294 123 -3 352 c-2 333 -1 352 15
347 10 -3 146 -59 303 -124z m1018 -224 l-3 -351 -285 -119 c-157 -65 -293
-121 -303 -124 -16 -5 -17 14 -15 347 l3 352 290 123 c160 67 296 123 303 123
10 1 12 -72 10 -351z m-1450 -229 l-3 -121 -160 -65 -160 -65 -280 116 c-153
64 -281 118 -282 120 -2 1 58 29 132 61 l136 57 134 -56 c74 -31 145 -56 158
-56 13 0 86 29 163 64 76 36 145 65 152 65 10 1 12 -27 10 -120z m1726 21 c80
-33 152 -60 161 -60 9 0 78 27 155 59 l139 59 135 -56 c75 -31 132 -59 128
-63 -4 -3 -86 -39 -182 -79 -96 -40 -220 -92 -276 -115 l-100 -43 -160 68
-159 67 -3 111 c-2 72 1 112 8 112 5 0 75 -27 154 -60z m-2302 -293 l198 -82
0 -352 c0 -194 -2 -353 -4 -353 -2 0 -138 56 -302 124 l-299 125 -3 355 -2
355 107 -45 c60 -25 197 -82 305 -127z m3128 -209 l0 -353 -286 -119 c-157
-65 -294 -120 -305 -123 -19 -5 -19 1 -17 346 l3 352 295 124 c162 68 298 124
303 124 4 1 7 -158 7 -351z m-2257 160 c15 -5 27 -13 27 -17 0 -4 -67 -36
-150 -71 -82 -34 -154 -68 -160 -74 -5 -8 -11 -107 -12 -241 l-3 -228 -110
-47 c-60 -25 -118 -49 -127 -53 -17 -6 -18 15 -18 347 l0 353 156 66 157 65
106 -45 c58 -25 118 -50 134 -55z m1380 6 l157 -66 0 -349 c0 -243 -3 -349
-11 -349 -6 0 -66 23 -135 52 l-124 52 0 242 c0 226 -1 244 -19 256 -10 7 -84
40 -164 73 -80 33 -144 62 -141 64 2 2 54 26 116 53 70 29 123 46 138 44 14
-3 96 -35 183 -72z m-1043 -149 c73 -30 140 -55 150 -55 10 0 77 25 150 55 73
30 138 55 144 55 16 0 266 -103 266 -110 0 -3 -126 -58 -280 -123 l-280 -117
-280 117 c-154 65 -280 120 -280 123 0 8 241 108 261 109 9 1 76 -24 149 -54z
m-201 -274 c156 -66 285 -122 287 -124 3 -2 3 -162 2 -354 l-3 -350 -300 126
-300 126 -3 353 c-2 334 -1 353 15 348 10 -3 146 -60 302 -125z m1019 -223
l-3 -353 -290 -122 c-159 -67 -296 -122 -303 -122 -10 -1 -12 72 -10 351 l3
351 295 123 c162 68 298 123 303 123 4 1 6 -158 5 -351z"/>
</g>
</svg>
