<?xml version="1.0" standalone="no"?>
<!DOCTYPE svg PUBLIC "-//W3C//DTD SVG 20010904//EN"
 "http://www.w3.org/TR/2001/REC-SVG-20010904/DTD/svg10.dtd">
<svg version="1.0" xmlns="http://www.w3.org/2000/svg"
 width="512.000000pt" height="512.000000pt" viewBox="0 0 512.000000 512.000000"
 preserveAspectRatio="xMidYMid meet">

<g transform="translate(0.000000,512.000000) scale(0.100000,-0.100000)"
fill="#000000" stroke="none">
<path d="M4200 4837 c-170 -58 -294 -194 -335 -369 -8 -35 -15 -78 -15 -95 l0
-33 -1795 0 -1795 0 0 -1480 0 -1480 1125 0 1125 0 0 -39 c0 -21 7 -75 15
-120 85 -446 421 -809 860 -927 136 -36 376 -45 511 -19 352 69 640 277 818
590 57 99 100 216 127 347 29 144 23 367 -15 511 -56 216 -149 378 -309 540
l-107 110 2 740 3 740 55 14 c233 58 389 252 390 484 0 223 -131 412 -338 485
-92 32 -229 33 -322 1z m276 -104 c66 -22 147 -76 184 -123 170 -215 86 -523
-170 -621 -78 -30 -222 -24 -295 11 -69 33 -152 114 -186 182 -108 215 5 482
234 553 60 19 174 18 233 -2z m-591 -550 c10 -27 32 -70 48 -97 l30 -49 -239
-233 c-188 -184 -243 -232 -259 -228 -54 14 -99 15 -141 4 l-46 -13 -81 81
-81 81 12 39 c33 108 -17 213 -120 256 -71 30 -164 10 -218 -45 -52 -54 -74
-151 -50 -214 10 -26 1 -37 -182 -226 -141 -147 -196 -198 -207 -193 -39 17
-138 16 -172 -1 -82 -42 -122 -103 -122 -186 0 -186 224 -273 350 -136 54 58
70 122 49 192 l-16 50 193 193 c155 155 196 192 212 187 43 -14 125 -17 157
-6 32 11 33 11 117 -73 81 -81 84 -86 73 -111 -20 -43 -15 -117 11 -166 62
-117 214 -144 314 -56 65 57 86 135 61 219 l-12 39 165 165 c90 91 198 196
239 234 l76 68 54 -34 c31 -19 88 -42 128 -52 l72 -17 0 -706 0 -706 -75 39
c-216 113 -475 159 -699 123 -266 -41 -472 -144 -663 -329 l-93 -89 0 151 c0
83 -4 162 -10 176 l-10 26 -189 0 c-178 0 -191 -1 -201 -19 -6 -13 -10 -159
-10 -408 0 -462 -7 -433 105 -433 l75 0 -6 -27 c-3 -16 -8 -57 -12 -93 l-7
-65 -1067 -3 -1068 -2 0 1370 0 1370 1749 0 1748 0 18 -47z m-888 -286 c12
-12 25 -37 29 -54 6 -28 2 -37 -29 -68 -37 -37 -60 -42 -102 -23 -27 12 -55
54 -55 82 0 31 26 69 55 82 37 17 73 10 102 -19z m450 -450 c12 -12 25 -37 29
-54 6 -28 2 -37 -29 -68 -37 -37 -60 -42 -102 -23 -27 12 -55 54 -55 82 0 31
26 69 55 82 37 17 73 10 102 -19z m-1122 -222 c19 -18 25 -35 25 -65 0 -55
-34 -90 -88 -90 -53 0 -92 38 -92 90 0 80 99 122 155 65z m1303 -891 l-3 -167
-88 -18 c-366 -74 -623 -426 -577 -792 6 -47 22 -121 36 -164 15 -42 23 -79
18 -80 -5 -2 -70 -39 -144 -82 l-135 -79 -14 27 c-61 114 -101 294 -102 465
-1 333 147 630 419 839 152 117 397 212 560 216 l32 1 -2 -166z m334 130 c304
-81 577 -317 699 -605 62 -146 82 -247 83 -424 1 -145 -2 -169 -26 -255 -31
-111 -72 -213 -86 -218 -6 -2 -73 34 -151 78 -117 68 -139 85 -132 98 58 109
78 330 43 470 -26 101 -78 207 -142 288 -102 128 -279 232 -437 257 l-73 12 0
168 0 169 65 -7 c36 -4 107 -18 157 -31z m-1312 -248 l0 -214 -29 -58 c-15
-33 -36 -80 -46 -106 -17 -47 -18 -48 -61 -48 l-44 0 0 320 0 320 90 0 90 0 0
-214z m1237 -196 c256 -90 427 -349 410 -619 -14 -227 -141 -420 -340 -515
-51 -24 -116 -49 -145 -55 -82 -17 -200 -13 -287 9 -211 54 -386 231 -440 445
-19 75 -19 233 0 305 55 206 225 381 430 442 86 26 285 19 372 -12z m-760
-1054 c80 -102 237 -200 381 -237 93 -24 243 -25 339 -4 37 9 111 37 163 62
80 40 109 61 188 140 l93 93 142 -82 c78 -44 143 -82 145 -83 2 -1 -24 -36
-56 -76 -220 -277 -536 -421 -887 -406 -206 9 -392 72 -560 188 -77 53 -236
212 -267 266 l-17 29 142 82 c78 45 144 82 147 82 3 0 24 -24 47 -54z"/>
<path d="M576 4024 c-19 -18 -21 -65 -4 -82 18 -18 63 -14 81 6 22 25 21 48
-3 72 -24 24 -53 26 -74 4z"/>
<path d="M876 4024 c-19 -18 -21 -65 -4 -82 9 -9 131 -12 489 -12 l478 0 15
22 c21 30 20 44 -4 68 -19 19 -33 20 -489 20 -414 0 -471 -2 -485 -16z"/>
<path d="M576 3724 c-23 -22 -20 -71 3 -84 31 -16 59 -12 75 12 21 30 20 44
-4 68 -24 24 -53 26 -74 4z"/>
<path d="M876 3724 c-19 -18 -21 -65 -4 -82 9 -9 131 -12 489 -12 l478 0 15
22 c21 30 20 44 -4 68 -19 19 -33 20 -489 20 -414 0 -471 -2 -485 -16z"/>
<path d="M576 3424 c-23 -22 -20 -71 3 -84 31 -16 59 -12 75 12 21 30 20 44
-4 68 -24 24 -53 26 -74 4z"/>
<path d="M876 3424 c-19 -18 -21 -65 -4 -82 9 -9 131 -12 489 -12 l478 0 15
22 c21 30 20 44 -4 68 -19 19 -33 20 -489 20 -414 0 -471 -2 -485 -16z"/>
<path d="M576 3124 c-23 -22 -20 -71 3 -84 31 -16 59 -12 75 12 21 30 20 44
-4 68 -24 24 -53 26 -74 4z"/>
<path d="M876 3124 c-19 -18 -21 -65 -4 -82 9 -9 131 -12 489 -12 l478 0 15
22 c21 30 20 44 -4 68 -19 19 -33 20 -489 20 -414 0 -471 -2 -485 -16z"/>
<path d="M1766 2818 c-14 -20 -16 -89 -16 -558 0 -469 2 -538 16 -558 15 -21
21 -22 193 -22 160 0 180 2 194 18 15 17 17 70 17 558 0 472 -2 542 -16 562
-15 21 -21 22 -194 22 -173 0 -179 -1 -194 -22z m284 -558 l0 -470 -90 0 -90
0 0 470 0 470 90 0 90 0 0 -470z"/>
<path d="M572 2378 c-17 -17 -17 -669 0 -686 8 -8 65 -12 188 -12 159 0 179 2
193 18 15 16 17 55 17 336 0 200 -4 324 -10 337 -10 18 -23 19 -193 19 -129 0
-187 -4 -195 -12z m286 -340 l-3 -243 -92 -3 -93 -3 0 246 0 245 95 0 95 0 -2
-242z"/>
<path d="M1170 2230 c-21 -13 -28 -481 -7 -520 l13 -25 178 -3 c156 -2 181 0
197 14 18 16 19 36 19 261 0 149 -4 252 -10 264 -10 18 -23 19 -193 19 -100 0
-189 -5 -197 -10z m280 -270 l0 -170 -90 0 -90 0 0 170 0 170 90 0 90 0 0
-170z"/>
<path d="M3588 1854 c-172 -41 -297 -173 -329 -347 -32 -171 58 -358 215 -447
212 -122 483 -36 593 188 34 67 38 86 41 163 6 145 -35 246 -139 344 -54 51
-125 86 -207 104 -66 14 -102 13 -174 -5z m233 -132 c59 -29 114 -84 147 -147
23 -43 27 -62 27 -140 0 -78 -4 -97 -27 -140 -78 -147 -247 -213 -401 -155
-63 24 -136 90 -168 152 -31 59 -38 190 -15 252 35 91 103 159 193 192 58 22
187 14 244 -14z"/>
</g>
</svg>
