<?xml version="1.0" standalone="no"?>
<!DOCTYPE svg PUBLIC "-//W3C//DTD SVG 20010904//EN"
 "http://www.w3.org/TR/2001/REC-SVG-20010904/DTD/svg10.dtd">
<svg version="1.0" xmlns="http://www.w3.org/2000/svg"
 width="512.000000pt" height="512.000000pt" viewBox="0 0 512.000000 512.000000"
 preserveAspectRatio="xMidYMid meet">

<g transform="translate(0.000000,512.000000) scale(0.100000,-0.100000)"
fill="#000000" stroke="none">
<path d="M2153 4907 l-213 -213 0 -585 c0 -583 0 -586 21 -605 20 -18 45 -19
599 -19 554 0 579 1 599 19 l21 19 0 779 c0 765 0 778 -20 798 -19 19 -33 20
-407 20 l-387 0 -213 -213z m887 -602 l0 -675 -480 0 -480 0 0 480 0 480 169
0 c230 0 215 -15 219 214 l3 176 285 0 284 0 0 -675z m-710 500 l0 -75 -77 0
-77 0 74 75 c41 41 76 75 77 75 2 0 3 -34 3 -75z"/>
<path d="M2212 4390 c-13 -12 -22 -33 -22 -50 0 -17 9 -38 22 -50 21 -19 34
-20 348 -20 314 0 327 1 348 20 13 12 22 33 22 50 0 17 -9 38 -22 50 -21 19
-34 20 -348 20 -314 0 -327 -1 -348 -20z"/>
<path d="M2210 4140 c-29 -29 -26 -74 7 -100 26 -20 34 -21 351 -18 l324 3 19
24 c25 30 24 66 -1 91 -19 19 -33 20 -350 20 -317 0 -331 -1 -350 -20z"/>
<path d="M2240 3913 c-51 -19 -66 -77 -30 -113 19 -19 33 -20 350 -20 317 0
331 1 350 20 25 25 26 61 1 91 l-19 24 -319 2 c-175 1 -325 -1 -333 -4z"/>
<path d="M744 4653 c-11 -2 -116 -100 -232 -217 l-212 -212 0 -581 0 -582 26
-20 c26 -21 35 -21 599 -21 549 0 574 1 596 19 l24 19 0 776 0 775 -23 23 -23
23 -367 1 c-202 1 -376 0 -388 -3z m666 -818 l0 -675 -485 0 -485 0 0 480 0
480 154 0 c159 0 209 9 226 40 6 10 10 93 10 184 l0 166 290 0 290 0 0 -675z
m-720 505 l0 -70 -72 0 -72 0 69 70 c38 39 71 70 72 70 2 0 3 -31 3 -70z"/>
<path d="M593 3936 c-37 -17 -49 -49 -34 -88 17 -45 56 -50 387 -46 280 3 303
4 323 22 28 25 28 77 0 102 -20 18 -42 19 -333 21 -251 2 -317 0 -343 -11z"/>
<path d="M600 3693 c-52 -19 -66 -75 -27 -111 23 -22 28 -22 350 -22 314 0
328 1 347 20 29 29 26 74 -6 99 -26 20 -38 21 -338 20 -171 0 -318 -3 -326 -6z"/>
<path d="M570 3430 c-25 -25 -26 -61 -1 -91 l19 -24 324 -3 c317 -3 325 -2
351 18 33 26 36 71 7 100 -19 19 -33 20 -350 20 -317 0 -331 -1 -350 -20z"/>
<path d="M4015 4650 c-38 -12 -431 -405 -440 -440 -3 -14 -4 -279 -3 -588 l3
-564 24 -19 c22 -18 47 -19 600 -19 l578 0 21 23 22 23 0 771 c0 744 -1 772
-19 794 l-19 24 -369 2 c-202 1 -381 -2 -398 -7z m665 -815 l0 -675 -485 0
-485 0 0 479 0 479 174 4 c232 4 216 -12 216 215 l0 173 290 0 290 0 0 -675z
m-720 505 l0 -70 -72 0 -72 0 69 70 c38 39 71 70 72 70 2 0 3 -31 3 -70z"/>
<path d="M3885 3943 c-55 -14 -75 -82 -34 -119 20 -18 42 -19 319 -22 332 -3
371 1 389 46 18 42 -2 79 -48 92 -36 10 -587 12 -626 3z"/>
<path d="M3858 3684 c-39 -21 -42 -76 -6 -106 18 -16 50 -18 345 -18 l324 0
24 25 c30 29 32 55 6 86 l-19 24 -324 2 c-273 2 -327 0 -350 -13z"/>
<path d="M3847 3433 c-19 -23 -23 -41 -14 -74 12 -46 35 -49 371 -49 284 0
316 2 334 18 32 26 37 63 12 95 l-21 27 -333 0 c-304 0 -334 -1 -349 -17z"/>
<path d="M2533 3359 c-40 -15 -43 -37 -43 -295 l0 -247 -22 21 c-36 32 -70 37
-101 12 -19 -15 -27 -30 -27 -53 1 -26 17 -49 93 -129 82 -87 97 -98 127 -98
30 0 45 11 127 98 76 80 92 103 93 129 0 23 -8 38 -27 53 -31 25 -65 20 -100
-12 l-23 -21 0 247 c0 142 -4 255 -10 266 -13 24 -59 39 -87 29z"/>
<path d="M874 2886 c-18 -14 -19 -32 -22 -446 -2 -359 0 -436 11 -454 8 -11
73 -55 145 -96 72 -41 128 -78 124 -82 -4 -3 -16 -8 -26 -10 -10 -1 -28 -15
-39 -30 -17 -23 -19 -33 -11 -55 18 -51 47 -56 175 -28 195 43 194 41 149 210
-19 72 -40 129 -53 143 -26 28 -70 29 -98 1 -18 -18 -20 -28 -14 -66 l7 -46
-39 23 c-21 12 -73 42 -115 67 l-78 45 0 402 c0 378 -1 404 -18 419 -23 21
-71 22 -98 3z"/>
<path d="M4147 2882 c-15 -17 -17 -60 -17 -419 l0 -401 -77 -45 c-43 -25 -96
-55 -117 -68 l-39 -23 7 38 c9 49 0 73 -32 89 -35 17 -69 11 -86 -16 -8 -12
-28 -76 -46 -142 -44 -169 -46 -167 149 -210 128 -28 157 -23 175 28 8 22 6
32 -11 55 -11 15 -29 29 -39 30 -10 2 -22 7 -26 11 -4 3 52 40 125 82 78 45
137 86 144 100 10 18 13 129 13 437 0 411 -2 443 -34 464 -21 14 -73 8 -89
-10z"/>
<path d="M2390 2449 c-416 -23 -729 -126 -807 -264 l-23 -40 0 -913 c0 -745 2
-919 14 -945 17 -42 91 -109 157 -143 229 -116 730 -173 1125 -129 147 16 342
55 429 85 136 47 257 143 270 214 3 17 4 439 3 937 l-3 905 -28 43 c-112 169
-614 280 -1137 250z m508 -154 c226 -32 396 -81 471 -136 59 -42 62 -56 16
-96 -73 -63 -288 -126 -526 -154 -137 -16 -607 -7 -714 14 -202 39 -328 80
-394 128 -53 38 -59 54 -30 85 64 68 225 117 559 167 73 12 523 5 618 -8z
m-1150 -404 c117 -59 377 -113 640 -132 137 -10 207 -10 345 0 262 19 522 73
639 132 21 11 40 19 43 19 3 0 5 -87 5 -194 l0 -194 -34 -29 c-128 -113 -599
-191 -998 -164 -190 13 -425 55 -537 97 -60 23 -126 63 -143 88 -9 12 -11 396
-3 396 3 0 22 -8 43 -19z m62 -595 c107 -44 294 -83 480 -101 418 -41 824 10
1118 142 9 4 12 -39 12 -199 l0 -204 -28 -27 c-62 -60 -238 -117 -472 -154
-163 -25 -558 -25 -719 0 -263 42 -435 100 -488 165 -10 12 -13 72 -13 220 0
160 3 203 13 199 6 -4 50 -22 97 -41z m39 -607 c90 -32 288 -69 441 -84 394
-39 823 10 1083 124 l47 20 0 -205 0 -205 -27 -25 c-67 -62 -221 -111 -474
-151 -161 -25 -557 -25 -719 0 -240 38 -418 94 -475 151 l-25 25 0 205 0 205
48 -20 c26 -12 71 -30 101 -40z"/>
<path d="M2472 1609 c-41 -12 -58 -50 -41 -91 15 -37 68 -51 160 -42 58 6 73
11 90 32 24 31 19 68 -13 95 -23 19 -137 23 -196 6z"/>
<path d="M2470 1017 c-41 -14 -57 -49 -41 -89 14 -38 72 -52 164 -41 59 7 73
12 90 34 24 33 13 78 -24 96 -30 16 -143 16 -189 0z"/>
<path d="M2472 429 c-41 -12 -58 -50 -41 -91 16 -38 70 -52 162 -41 59 7 73
12 90 35 18 24 18 30 7 58 -7 17 -21 35 -31 40 -22 12 -143 11 -187 -1z"/>
</g>
</svg>
