<?xml version="1.0" standalone="no"?>
<!DOCTYPE svg PUBLIC "-//W3C//DTD SVG 20010904//EN"
 "http://www.w3.org/TR/2001/REC-SVG-20010904/DTD/svg10.dtd">
<svg version="1.0" xmlns="http://www.w3.org/2000/svg"
 width="189.000000pt" height="134.000000pt" viewBox="0 0 189.000000 134.000000"
 preserveAspectRatio="xMidYMid meet">

<g transform="translate(0.000000,134.000000) scale(0.100000,-0.100000)"
fill="#000000" stroke="none">
<path d="M1665 1238 c-5 -24 -35 -428 -35 -473 0 -34 38 -34 78 0 23 19 31 36
36 75 6 47 8 50 36 50 46 0 70 40 70 115 0 67 -7 78 -52 89 -26 6 -28 10 -28
60 0 66 -26 106 -71 106 -22 0 -30 -5 -34 -22z m65 -27 c14 -26 12 -108 -5
-276 -11 -110 -18 -142 -32 -152 -35 -26 -37 0 -20 214 10 115 17 214 17 221
0 19 28 14 40 -7z m74 -154 c14 -10 17 -25 14 -72 -3 -59 -3 -60 -33 -60 l-30
0 4 65 c4 85 9 93 45 67z"/>
<path d="M337 1217 l-128 -32 -44 -71 -45 -71 23 -99 c12 -53 28 -99 35 -102
17 -5 15 31 -7 116 -14 53 -16 74 -8 77 7 2 28 8 47 13 l35 9 -2 54 -3 55 118
26 c98 22 118 24 125 12 14 -24 29 -16 25 14 -4 36 -18 36 -171 -1z m-117
-123 c0 -13 -30 -28 -38 -19 -3 3 1 16 8 30 10 19 16 22 22 13 4 -7 8 -18 8
-24z"/>
<path d="M939 1227 c-79 -30 -149 -89 -149 -125 0 -11 15 -2 43 25 141 138
355 96 423 -84 22 -58 14 -77 -31 -69 -26 5 -37 3 -41 -8 -6 -17 85 -179 101
-179 11 0 104 151 105 171 1 28 -20 8 -56 -53 -21 -36 -43 -64 -48 -62 -10 3
-64 85 -65 100 -1 4 18 7 40 7 l42 0 -6 49 c-3 28 -13 65 -23 83 -23 47 -82
106 -129 130 -50 26 -156 34 -206 15z"/>
<path d="M457 1136 l-139 -31 -45 -73 -45 -72 13 -57 c17 -68 46 -89 36 -25
-4 22 -9 47 -13 55 -4 11 8 18 46 27 l52 13 -6 37 c-3 21 -9 45 -12 53 -4 12
14 19 83 35 166 39 160 39 168 0 36 -179 53 -226 69 -200 6 11 -49 251 -60
262 -5 4 -71 -7 -147 -24z m-137 -139 c-4 -5 -15 -7 -24 -5 -15 3 -15 5 0 27
17 23 18 23 25 5 4 -10 3 -23 -1 -27z"/>
<path d="M707 994 c-14 -15 7 -24 54 -24 l49 0 0 -36 c0 -24 4 -34 13 -32 15
5 21 41 13 74 -6 22 -12 24 -65 24 -32 0 -61 -3 -64 -6z"/>
<path d="M433 945 c-77 -19 -88 -24 -76 -36 14 -14 183 23 183 41 0 13 -42 11
-107 -5z"/>
<path d="M446 881 c-65 -16 -102 -42 -59 -41 41 1 167 36 171 48 5 16 -26 14
-112 -7z"/>
<path d="M655 830 l-28 -30 -251 -2 -251 -3 -4 -25 c-4 -33 39 -312 52 -327
14 -19 650 -19 665 0 12 15 63 383 55 403 -4 11 -29 14 -107 14 -100 0 -103
-1 -131 -30z m207 -2 c3 -7 -3 -67 -12 -133 -10 -66 -20 -146 -24 -177 l-7
-58 -309 0 c-170 0 -311 4 -314 9 -7 10 -46 252 -46 281 0 19 6 20 240 20
l240 0 38 35 c35 33 40 34 113 35 53 0 78 -4 81 -12z"/>
<path d="M1000 702 c0 -4 5 -13 11 -19 6 -6 19 -126 30 -274 11 -145 24 -274
29 -286 9 -23 12 -23 209 -23 149 0 201 3 209 13 6 7 20 136 32 287 16 207 25
278 36 286 8 6 14 14 14 18 0 3 -128 6 -285 6 -157 0 -285 -4 -285 -8z m505
-21 c3 -6 -4 -123 -15 -260 -11 -138 -20 -259 -20 -271 0 -19 -6 -20 -185 -20
-140 0 -187 3 -190 13 -7 21 -44 531 -39 539 7 11 442 10 449 -1z"/>
<path d="M1144 636 c-10 -25 14 -458 26 -470 20 -20 22 27 10 246 -11 209 -20
266 -36 224z"/>
<path d="M1270 405 c0 -193 3 -246 13 -243 9 4 12 61 12 243 0 182 -3 239 -12
243 -10 3 -13 -50 -13 -243z"/>
<path d="M1397 643 c-11 -17 -29 -465 -19 -475 6 -6 12 -6 16 1 12 19 30 461
19 472 -6 6 -13 7 -16 2z"/>
</g>
</svg>
