<?xml version="1.0" standalone="no"?>
<!DOCTYPE svg PUBLIC "-//W3C//DTD SVG 20010904//EN"
 "http://www.w3.org/TR/2001/REC-SVG-20010904/DTD/svg10.dtd">
<svg version="1.0" xmlns="http://www.w3.org/2000/svg"
 width="512.000000pt" height="512.000000pt" viewBox="0 0 512.000000 512.000000"
 preserveAspectRatio="xMidYMid meet">

<g transform="translate(0.000000,512.000000) scale(0.100000,-0.100000)"
fill="#000000" stroke="none">
<path d="M2325 5109 c-139 -14 -254 -36 -280 -53 -13 -9 -36 -31 -50 -50 -23
-30 -32 -66 -66 -263 -45 -262 -39 -251 -163 -302 -64 -26 -83 -30 -107 -22
-15 5 -107 66 -204 135 -259 185 -269 184 -510 -10 -163 -131 -375 -358 -476
-508 -34 -51 -39 -66 -39 -115 0 -66 1 -68 159 -290 57 -79 107 -155 112 -168
9 -24 -2 -68 -40 -156 -31 -71 -39 -75 -267 -113 -115 -19 -223 -39 -241 -45
-47 -15 -99 -78 -111 -135 -50 -234 -50 -674 -1 -906 13 -59 64 -122 112 -137
18 -6 126 -26 241 -45 243 -41 234 -36 285 -160 25 -62 30 -84 23 -105 -5 -14
-66 -107 -136 -205 -69 -99 -129 -190 -132 -203 -14 -54 2 -122 42 -181 132
-192 390 -451 591 -592 63 -44 129 -61 186 -46 14 3 107 64 208 136 101 72
194 133 205 136 26 7 184 -59 209 -85 10 -12 28 -90 51 -227 19 -115 40 -222
46 -238 18 -44 65 -93 101 -105 115 -38 479 -60 686 -42 270 24 337 46 378
124 9 18 33 130 54 251 25 144 44 225 54 236 25 27 183 93 209 86 11 -3 104
-64 205 -136 101 -72 194 -133 208 -136 57 -15 123 2 186 46 207 145 545 494
619 638 25 50 24 127 -3 171 -12 19 -70 104 -131 189 -60 84 -114 164 -120
178 -9 19 -5 38 22 108 18 47 42 94 55 106 18 17 63 28 231 55 227 38 278 55
319 109 58 77 91 452 65 746 -22 236 -45 310 -116 356 -14 10 -120 33 -251 55
-182 31 -230 43 -248 59 -13 12 -37 58 -54 103 -26 67 -30 88 -22 109 5 15 59
96 119 180 148 208 152 214 152 271 0 69 -16 99 -127 238 -121 149 -322 347
-454 446 -110 83 -132 93 -197 93 -56 0 -65 -5 -269 -151 -83 -60 -163 -113
-177 -119 -28 -10 -31 -10 -126 28 -107 42 -105 39 -145 272 -20 113 -41 220
-46 238 -15 46 -63 99 -102 111 -110 37 -532 60 -722 40z m614 -103 c128 -23
124 -17 171 -289 21 -125 43 -234 49 -244 20 -39 70 -73 153 -107 89 -37 137
-44 182 -26 15 5 105 66 202 135 180 128 206 142 247 131 39 -9 231 -162 341
-270 167 -165 326 -366 326 -413 0 -34 -8 -47 -141 -233 -65 -91 -123 -178
-128 -193 -18 -47 -12 -94 21 -175 66 -161 69 -163 355 -212 277 -48 272 -45
292 -186 31 -222 31 -506 0 -728 -20 -141 -15 -138 -293 -186 -276 -49 -279
-50 -338 -179 -74 -159 -71 -173 79 -383 144 -202 153 -217 153 -250 0 -50
-183 -275 -361 -444 -91 -87 -276 -233 -305 -240 -39 -10 -71 7 -239 127 -88
62 -176 121 -195 131 -54 28 -104 22 -223 -27 -17 -7 -17 -6 0 23 17 29 16 35
-16 189 -19 87 -42 187 -52 223 -21 75 -28 65 86 132 325 190 571 520 665 892
102 403 29 818 -208 1176 -81 123 -271 310 -399 394 -334 218 -738 294 -1115
210 l-67 -15 -118 44 c-316 120 -607 191 -873 215 -97 9 -136 3 -146 -22 -3
-8 9 -42 27 -77 45 -90 76 -177 107 -299 27 -105 27 -106 24 -425 l-3 -320
-29 -93 c-48 -148 -64 -258 -64 -432 1 -177 18 -286 70 -450 162 -508 600
-888 1135 -986 186 -34 446 -20 644 35 51 14 72 17 77 8 14 -23 21 -143 13
-251 -10 -166 -10 -165 19 -194 22 -22 34 -26 81 -26 l56 1 -19 -21 c-31 -34
-31 -35 -72 -273 -48 -278 -44 -272 -191 -294 -129 -19 -589 -19 -718 0 -148
22 -144 17 -191 294 -41 239 -50 265 -108 305 -34 23 -147 70 -189 78 -63 12
-98 -5 -280 -133 -200 -141 -227 -154 -276 -131 -55 27 -239 182 -357 300
-132 133 -290 336 -290 374 0 34 2 37 145 239 75 107 127 190 131 211 9 49 -2
95 -45 189 -58 125 -62 127 -337 175 -273 48 -269 46 -290 166 -35 196 -36
515 -3 748 20 141 15 138 293 186 282 50 288 53 349 200 57 139 53 162 -65
327 -159 224 -178 254 -178 283 0 54 207 312 367 458 107 97 269 221 299 228
41 11 66 -2 239 -127 94 -67 184 -128 202 -135 50 -22 97 -17 181 18 161 66
163 70 211 353 50 290 35 271 237 300 131 19 572 13 693 -9z m-1545 -892 c477
-85 950 -278 1366 -557 121 -81 275 -230 338 -327 209 -318 258 -747 141
-1230 -17 -69 -34 -131 -38 -138 -4 -8 -34 47 -75 140 -191 430 -472 877 -765
1218 -218 253 -499 520 -547 520 -20 0 -44 -24 -44 -44 0 -3 57 -63 128 -134
192 -193 350 -393 514 -652 281 -445 503 -960 677 -1572 51 -182 121 -478 121
-516 0 -25 -27 -42 -65 -42 -25 0 -27 3 -22 33 25 145 15 302 -29 453 -48 168
-114 282 -185 319 -14 8 -97 23 -185 35 -462 61 -770 195 -1020 445 -319 317
-460 789 -415 1385 17 223 -25 454 -126 687 -6 16 35 11 231 -23z m1440 -208
c264 -59 481 -175 672 -359 200 -192 327 -416 391 -690 24 -99 27 -134 27
-297 1 -201 -10 -275 -63 -433 -106 -312 -320 -577 -603 -746 -39 -23 -74 -39
-78 -34 -5 4 -24 63 -44 130 -132 444 -350 970 -518 1251 -11 17 -17 32 -15
32 3 0 41 -56 86 -125 154 -236 293 -503 414 -790 89 -212 108 -216 169 -34
77 227 127 561 113 759 -26 380 -138 652 -365 881 -123 124 -317 255 -584 395
-126 66 -125 64 -46 78 55 10 377 -3 444 -18z m-1533 -1341 c145 -422 434
-725 847 -889 187 -75 346 -113 578 -141 68 -7 137 -21 153 -30 47 -24 146
-230 119 -246 -41 -26 -242 -61 -374 -66 -372 -15 -684 93 -962 331 -218 186
-365 429 -440 726 -24 95 -26 123 -27 300 0 132 4 215 14 255 l14 60 23 -105
c13 -58 38 -145 55 -195z"/>
</g>
</svg>
