<?xml version="1.0" standalone="no"?>
<!DOCTYPE svg PUBLIC "-//W3C//DTD SVG 20010904//EN"
 "http://www.w3.org/TR/2001/REC-SVG-20010904/DTD/svg10.dtd">
<svg version="1.0" xmlns="http://www.w3.org/2000/svg"
 width="512.000000pt" height="512.000000pt" viewBox="0 0 512.000000 512.000000"
 preserveAspectRatio="xMidYMid meet">

<g transform="translate(0.000000,512.000000) scale(0.100000,-0.100000)"
fill="#000000" stroke="none">
<path d="M774 4831 c-66 -40 -94 -107 -75 -178 8 -27 160 -225 527 -683 284
-355 1060 -1325 1725 -2156 918 -1149 1217 -1515 1243 -1528 81 -38 168 -10
213 69 27 48 29 89 5 135 -10 19 -178 236 -375 483 -196 246 -357 449 -357
451 0 2 51 34 113 71 318 191 639 446 910 723 150 155 182 213 182 342 0 75
-4 93 -33 155 -28 60 -55 91 -190 225 -639 632 -1282 983 -1927 1051 -258 27
-614 -21 -887 -121 -45 -17 -87 -30 -94 -30 -7 0 -188 220 -403 489 -286 357
-400 493 -425 505 -46 22 -114 20 -152 -3z m1979 -1116 c254 -44 473 -161 653
-346 163 -168 268 -378 310 -623 20 -115 15 -337 -11 -446 -24 -103 -83 -244
-141 -340 -55 -92 -142 -203 -154 -198 -5 2 -68 76 -140 165 l-130 162 35 50
c128 178 164 429 94 651 -30 94 -30 94 -67 66 -76 -56 -188 -60 -269 -10 -120
74 -158 233 -83 346 33 48 34 46 -56 77 -153 51 -326 48 -486 -9 l-79 -28
-121 152 c-67 83 -128 159 -136 168 -14 17 -8 21 82 63 104 49 236 90 331 104
97 14 276 12 368 -4z"/>
<path d="M1158 3517 c-246 -165 -466 -345 -695 -572 -141 -139 -166 -169 -195
-230 -28 -62 -32 -80 -32 -155 0 -132 30 -187 191 -352 648 -661 1389 -1056
2033 -1085 200 -9 474 23 642 75 l56 17 -79 99 c-44 55 -88 110 -97 123 l-17
23 -64 -20 c-228 -72 -524 -63 -751 21 -158 59 -318 166 -440 295 -210 220
-320 500 -320 809 0 198 35 343 127 524 29 58 53 106 53 107 0 5 -303 379
-309 382 -4 1 -50 -26 -103 -61z"/>
<path d="M1847 2777 c-55 -175 -38 -384 46 -552 60 -122 186 -253 305 -317
123 -67 347 -113 439 -91 l31 8 -400 500 c-220 275 -401 501 -402 502 -1 2
-10 -21 -19 -50z"/>
</g>
</svg>
