<svg version="1.0" xmlns="http://www.w3.org/2000/svg" width="682.667" height="682.667" viewBox="0 0 512 512"><path d="M248 13.7c-21.6.7-44.3 4.6-65.7 11.4-18 5.8-26.2 9.6-26.9 12.5-.8 3.2.1 5.2 3 6.5 2.1 1 3.9.6 11.3-2.4 27.9-11.1 49.2-15.5 79.4-16.4 38.6-1.2 71.4 5.6 105.9 21.9 68.9 32.6 117.8 98.6 129.5 174.8 2.2 14.8 3 43 1.6 56.5-4.6 42.6-20.4 82.8-45.8 116.7-9.4 12.5-30.6 34-42.6 43.3-4.8 3.7-9 6.5-9.2 6.3-.3-.3 2-6.1 5.1-13.1 6-13.6 6.4-16.5 2.1-18.4-4.9-2.3-6.4-.2-16.8 23.6-5.5 12.3-9.9 23.4-9.9 24.7 0 4.2 3.3 5 28.9 7.8 26.1 2.7 27.5 2.6 28.7-2.1.6-2.1.2-3.1-1.8-4.8-2-1.7-4.8-2.3-15.9-3.3-7.4-.7-14.2-1.6-15.2-1.8-1.3-.4.9-2.6 8.8-8.6C450 412.7 483 359.3 494 301.1c3-15.9 4-26.9 4-44.1.1-114.8-78.7-213.2-190.5-237.9-17.2-3.8-41-5.9-59.5-5.4zM87.1 41.9c-2.8 2.8-2.7 5.5.3 7.8 1.8 1.4 5.6 2.2 15.7 3.2 7.4.7 14.2 1.4 15.1 1.7 1.3.4-1.1 2.6-8.5 8.1-13.1 9.8-37.2 33.9-46.8 46.8-18.7 25.1-32.6 52.8-40.2 80.5-5.7 20.6-7.9 35.9-8.4 59.6-.9 36.3 3.6 63.3 15.7 94.3 30 77 97.9 133.7 179.5 150 30.5 6.1 65.5 5.8 97.5-1 20.7-4.4 46-13.5 48.6-17.4 1.9-2.9 1.1-5.8-2-7.5-2.2-1.1-3.5-.8-11.3 2.3-62.2 25-131.3 21.8-191.6-8.7-43.7-22.2-80.5-59.7-102.2-104.1-17.1-35.1-24.5-70-23.2-109C27 199.2 42.2 156.3 72.2 116c11.3-15.1 40-42.6 51.4-49.3.7-.4-1.5 5.4-4.8 13-5 11.1-5.9 14.1-5.2 16.1 1.2 3.4 5.7 4.6 8.3 2.4 2.3-2.1 21.1-44.6 21.1-47.8 0-4.1-3.4-5.1-25.5-7.4-11.5-1.2-22.6-2.4-24.6-2.7-2.9-.4-4.1-.1-5.8 1.6z"/><path d="M286.3 78.5c-1.3.9-2.4 3.1-2.8 5.5-.6 3.6-1.1 4.1-6.1 6.4l-5.5 2.5-4-2.6c-3.4-2.3-4.3-2.4-6.6-1.4-1.4.6-4.6 3.4-7.1 6.2-2.6 3-6.9 6.2-10.6 8-12.6 6.2-21.9 15.5-26.5 26.2l-2.1 4.8-3.9-2.5c-6.9-4.4-13.7-6.1-24.1-6-11.4.1-18 2.3-26.9 9-13.7 10.3-20.9 29.6-17.2 45.7.9 3.7.8 4-3.6 8-6.7 6.2-8.7 10.7-8.8 19.7 0 6.5.4 8.2 3 12.9 3.4 6.2 9.9 11.5 16.2 13 5.7 1.5 207.3 1.5 212.5.1 9.9-2.8 18.2-12.5 19.5-22.7 1.3-11.5-6.3-24.1-16.8-28.1l-5-1.8-.3-7.5c-.3-8.1-3.1-15.7-8.1-22.3l-2.6-3.4 2.6-2.6c2.2-2.2 2.5-3.3 2.5-9.9 0-8.8-2-12.4-7.3-12.9-2.8-.3-3.5-1-5.8-5.8l-2.6-5.5 2.5-3.7c1.6-2.5 2.2-4.5 1.8-6.1C342 99 330.8 88 328.7 88c-.8 0-3 1.1-5 2.4l-3.5 2.4-5.6-2.1c-4.6-1.9-5.6-2.7-6.1-5.2-1.2-5.5-1.5-6.2-4.1-7.3-3.7-1.7-15.5-1.5-18.1.3zm11.7 13c0 3 4.1 7.5 6.7 7.5 1 0 4.5 1.4 7.7 3 6.9 3.5 8.8 3.7 12.6 1 2.2-1.6 3-1.7 3.8-.7.8.9.6 2.1-.8 4.2-2.6 3.9-2.5 5.3.4 10.6 1.3 2.4 2.9 6.3 3.5 8.6 1.3 4.8 3.4 7.3 6.1 7.3 6.1 0 6.6 3.4.8 4.6-4.5 1-4.7 1.2-8.8 11.4-1.2 3-2.7 6.8-3.3 8.3-1 2.4-.8 3.4 1.1 6.8 1.9 3.3 2 4 .8 4.5-.9.3-2.7-.4-4.2-1.5-3.5-2.7-4.1-2.7-10.8.9-3.1 1.6-7.2 3.2-9.1 3.6-4 .7-5.5 2.3-6.4 6.7-1 4.9-3.5 4.6-4.9-.7-1.1-4.3-1.4-4.5-6.9-6.1-3.2-.9-7.8-2.9-10.2-4.3l-4.4-2.6-4 2.3c-5.1 3-6.5 1.7-3.6-3.3l2.2-3.7-3.1-6.7c-1.6-3.7-3.5-8.4-4.2-10.5-1-3.3-1.7-3.9-5.6-4.9-5.3-1.5-5.6-3.9-.7-4.9 4.4-.9 6-2.4 6.7-6.3.4-1.9 2-5.9 3.6-9 3.5-6.6 3.6-7.5 1-10.9-1.1-1.4-1.7-3.2-1.4-4.1.8-2 1.1-2 4.1.4 3.4 2.7 5 2.5 12.5-1 3.4-1.6 7-3 7.8-3 2.9 0 5.9-3 6.6-6.5.4-2.5 1.1-3.5 2.5-3.5s1.9.7 1.9 2.5zM250.8 117c-1.6 3.8-2.7 5.2-4.7 5.6-7.1 1.4-7.6 2.2-7.9 12.1-.3 8.8-.2 9.2 2.4 11.2 1.5 1.2 3.9 2.1 5.4 2.1 2.2 0 2.9.8 4.8 5.3 2.7 6.4 2.7 6.3.2 9.4-3.4 4.3-2.6 7.1 3.7 13.5 6.4 6.5 9.4 7.3 14.2 3.7l2.8-2 5.5 2.3c5 2 5.7 2.6 6.2 5.6 1 6.2 2.8 7.2 12.7 7.2 9.8 0 10.9-.7 12.3-7.6.6-2.6 1.6-3.4 6.1-5.3l5.5-2.3 2.9 2.1c4.9 3.5 7.7 2.8 14.3-3.7 3.2-3.3 5.8-6.8 5.8-7.9 0-1.1-1.1-3.6-2.4-5.6-2-3-2.2-3.8-1.2-5.3 1.2-1.5 1.5-1.4 3.5 1.4 1.2 1.7 2.8 4.7 3.7 6.8 1.8 4.3 2 15.4.4 18.4-2.7 5 1.4 9 8.9 9 7.6 0 14.3 6.8 14.4 14.7.1 6.5-2.6 11-8.2 14l-4.4 2.3H256.1c-97.1 0-101.8-.1-105.7-1.9-4.7-2.1-7-5-8.5-10.4-2-7.5 2.5-15.1 10.9-18.6 4-1.7 4.9-4.8 2.9-9.9-3.5-8.7-2.9-19.2 1.4-27.6 2.9-5.7 9.5-12.3 15.4-15.4 3.9-2 6.9-2.6 13.5-3 10.7-.5 17 1.7 25.3 8.8 3.2 2.7 6.4 5 7.1 5 2.7 0 4.7-2.8 6.1-8.5 2.4-9.1 5.3-14.5 11.4-20.5 5-5 12.7-9.8 15.8-10 .8 0 .5 1.7-.9 5z"/><path d="M291.2 107.1c-10.4 1.4-19.6 9.8-22.8 20.6-3.9 13.3 2.4 27.1 15.2 33.4 7.5 3.7 18 3.4 25.3-.6 10.1-5.6 15.1-14.2 15.1-25.9-.1-10.9-5.7-19.9-15.4-24.5-7.3-3.5-10.3-4-17.4-3zm10.5 12c9.5 3.5 13.9 14.9 9.3 23.9-2.9 5.7-7.3 8.4-14.5 8.8-5 .3-6.6 0-9.5-2-1.9-1.3-4.5-3.9-5.8-5.8-2-2.9-2.3-4.5-2-9.5.4-7.4 3-11.4 9-14.4 4.7-2.3 9.2-2.7 13.5-1zM97.7 116.2C93.6 119.9 78 142 78 144.1c0 2.2 3.3 5.9 5.3 5.9 2.1 0 5.2-2.6 8.3-7.1l2.9-4.2.5 40.2.5 40.3 2.4 1.9c2.6 2.1 5.8 1.8 7.9-.9.9-1.2 1.2-11.2 1.2-42.1v-40.6l4 5.7c4.6 6.5 7 7.7 10.5 5.4 4.3-2.8 3.3-5.8-6.7-19.5-10.8-14.9-9.8-13.7-12.5-14.5-1.4-.5-2.9 0-4.6 1.6zM407 116c-1.9 1.9-2 3.3-2 42.7v40.8l-4-5.7c-4.6-6.5-7-7.7-10.5-5.4-4.3 2.8-3.2 5.8 6.8 19.6 9.9 13.8 12.2 15.9 15.5 14.1 1.7-.9 14.4-17.3 19.6-25.3 2.2-3.3 1.5-7.2-1.4-8.8-3.2-1.7-5.8-.3-9.8 5.3l-3.7 5.1-.5-40.3-.5-40.3-2.4-1.9c-3-2.4-4.6-2.4-7.1.1zM80.2 245.6c-2.1 1.4-2.2 2.2-2.2 15 0 18-.9 17.1 21.7 20.8l17.1 2.9 3.1 9.8c1.7 5.4 5.4 14.3 8.2 19.9 2.9 5.8 4.7 10.5 4.3 11.3-.5.6-5 7.1-10.1 14.3-6.6 9.3-9.3 14-9.3 16.1 0 2.4 2.8 5.7 17.3 20.1 14.6 14.5 17.8 17.2 20.3 17.2 2.1 0 6.7-2.7 16.8-10 7.6-5.5 14.1-10 14.5-10 .3 0 4.9 2.2 10.2 4.9 5.3 2.6 14.2 6.3 19.7 8.1l9.9 3.2 2.9 17.2c2.3 14.2 3.2 17.4 5 19.3 2.3 2.3 2.7 2.3 26.4 2.3s24.1 0 26.4-2.3c1.8-1.9 2.7-5.1 5-19.3l2.9-17.2 9.9-3.2c5.5-1.8 14.4-5.5 19.7-8.1 5.3-2.7 10.2-4.7 10.9-4.4.7.2 7.3 4.7 14.6 10 9.4 6.7 14.2 9.5 16.2 9.5 2.3 0 5.8-3 20.1-17.3s17.3-17.8 17.3-20.1c0-2-2.8-6.8-9.5-16.2-5.3-7.3-9.8-13.9-10-14.6-.3-.7 1.7-5.7 4.4-11s6.3-14.1 8-19.6l3.2-9.9 17.2-2.8c22.5-3.8 21.7-3 21.7-20.5 0-11.7-.2-13.2-2-15-1.9-1.9-3.3-2-37.9-2-32.7 0-36.1.2-37.9 1.7-1.6 1.4-2.2 3.9-3.1 12.4-2.8 25.6-11.9 44.7-29.8 62-20.6 20-48.3 29.7-76.8 26.8-47.5-4.9-82.8-40.7-87.6-88.9-.9-8.5-1.5-10.8-3.1-12.3-1.8-1.5-5.2-1.7-37.7-1.7-30.7 0-36 .2-37.9 1.6zm67.3 15.1c2.9 22.3 9.7 39.5 22.1 55.9 19.8 26.3 52.6 42.4 86.4 42.4 43.8 0 83.9-26.8 100.5-67.2 3.4-8.1 6.8-21.4 8-31.1l.6-4.7H423v6c0 6.9 2.2 5.9-19.2 9.4-8 1.4-15.5 2.9-16.5 3.4-1.2.7-2.8 4.3-4.6 10.7-3.1 11.1-7.3 21.2-12.8 30.7-2.2 3.6-3.9 7.3-3.9 8.1 0 .8 4.5 7.8 10 15.6 5.5 7.7 10 14.4 10 14.8 0 1-24.2 25.3-25.3 25.3-.4 0-7.1-4.5-14.8-10-7.8-5.5-14.8-10-15.6-10-.9 0-4.1 1.6-7.2 3.5-9.8 5.9-27.5 12.9-37.8 15-1.7.3-3.6 1.2-4.2 1.8-.5.7-2.1 8.2-3.6 16.7-1.4 8.5-2.7 16.5-3 17.7-.5 2.3-.7 2.3-18.5 2.3-16.2 0-17.9-.2-18.4-1.8-.2-.9-1.4-7.8-2.6-15.2-1.2-7.4-2.6-14.9-3.1-16.6-1.1-3.4-2.1-4-12.9-7-9.1-2.5-21-7.6-29.3-12.5-6-3.6-7.4-4.1-9.7-3.2-1.4.5-8.3 5.1-15.2 10.1-7 5.1-13 9.2-13.5 9.2-1 0-25.3-24.2-25.3-25.3 0-.4 4.5-7.1 10-14.8 5.5-7.8 10-14.9 10-15.8 0-.9-.9-3-2.1-4.6-5.6-8.2-16.8-35.9-16.9-41.6 0-2.9-2.3-3.7-18-6.4-8.5-1.4-16.5-2.7-17.7-3-2.1-.5-2.3-1.1-2.3-6.5v-6h57.9l.6 4.7z"/><path d="M169.9 246.1c-2 2-2.1 2.8-1.4 10.1 2.9 34 24.3 62.6 55.7 74.8 46.6 18 98.9-6.4 114.7-53.7 5.1-15.1 6.4-28 3.1-31.3-2-2-3.3-2-86-2h-84l-2.1 2.1zM332 258.3c0 4.6-4.1 18.3-7.5 25.4-7.6 15.5-20 27.6-35.8 35.2-11.4 5.4-19.1 7.1-32.8 7.1-14.1 0-21.6-1.7-33.4-7.5-16.3-7.9-27.2-18.8-35-35-3.9-8.2-7.5-20.3-7.5-25.4 0-2.1 0-2.1 76-2.1h76v2.3z"/></svg>