<svg version="1.0" xmlns="http://www.w3.org/2000/svg" width="512" height="512" viewBox="0 0 512.000000 512.000000"
 preserveAspectRatio="xMidYMid meet">

<g transform="translate(0.000000,512.000000) scale(0.100000,-0.100000)"
fill="#000000" stroke="none">
<path d="M2480 4983 c-216 -7 -443 -46 -657 -114 -180 -58 -262 -96 -269 -125
-8 -32 1 -52 30 -65 21 -10 39 -6 113 24 279 111 492 155 794 164 386 12 714
-56 1059 -219 689 -326 1178 -986 1295 -1748 22 -148 30 -430 16 -565 -46
-426 -204 -828 -458 -1167 -94 -125 -306 -340 -426 -433 -48 -37 -90 -65 -92
-63 -3 3 20 61 51 131 60 136 64 165 21 184 -49 23 -64 2 -168 -236 -55 -123
-99 -234 -99 -247 0 -42 33 -50 289 -78 261 -27 275 -26 287 21 6 21 2 31 -18
48 -20 17 -48 23 -159 33 -74 7 -142 16 -152 18 -13 4 9 26 88 86 475 361 805
895 915 1477 30 159 40 269 40 441 1 1148 -787 2132 -1905 2379 -172 38 -410
59 -595 54z"/>
<path d="M871 4701 c-28 -28 -27 -55 3 -78 18 -14 56 -22 157 -32 74 -7 142
-14 151 -17 13 -4 -11 -26 -85 -81 -131 -98 -372 -339 -468 -468 -187 -251
-326 -528 -402 -805 -57 -206 -79 -359 -84 -596 -9 -363 36 -633 157 -943 300
-770 979 -1337 1795 -1500 305 -61 655 -58 975 10 207 44 460 135 486 174 19
29 11 58 -20 75 -22 11 -35 8 -113 -23 -622 -250 -1313 -218 -1916 87 -437
222 -805 597 -1022 1041 -171 351 -245 700 -232 1090 17 493 169 922 469 1325
113 151 400 426 514 493 7 4 -15 -54 -48 -130 -50 -111 -59 -141 -52 -161 12
-34 57 -46 83 -24 23 21 211 446 211 478 0 41 -34 51 -255 74 -115 12 -226 24
-246 27 -29 4 -41 1 -58 -16z"/>
<path d="M2863 4335 c-13 -9 -24 -31 -28 -55 -6 -36 -11 -41 -61 -64 l-55 -25
-40 26 c-34 23 -43 24 -66 14 -14 -6 -46 -34 -71 -62 -26 -30 -69 -62 -106
-80 -126 -62 -219 -155 -265 -262 l-21 -48 -39 25 c-69 44 -137 61 -241 60
-114 -1 -180 -23 -269 -90 -137 -103 -209 -296 -172 -457 9 -37 8 -40 -36 -80
-67 -62 -87 -107 -88 -197 0 -65 4 -82 30 -129 34 -62 99 -115 162 -130 57
-15 2073 -15 2125 -1 99 28 182 125 195 227 13 115 -63 241 -168 281 l-50 18
-3 75 c-3 81 -31 157 -81 223 l-26 34 26 26 c22 22 25 33 25 99 0 88 -20 124
-73 129 -28 3 -35 10 -58 58 l-26 55 25 37 c16 25 22 45 18 61 -6 27 -118 137
-139 137 -8 0 -30 -11 -50 -24 l-35 -24 -56 21 c-46 19 -56 27 -61 52 -12 55
-15 62 -41 73 -37 17 -155 15 -181 -3z m117 -130 c0 -30 41 -75 67 -75 10 0
45 -14 77 -30 69 -35 88 -37 126 -10 22 16 30 17 38 7 8 -9 6 -21 -8 -42 -26
-39 -25 -53 4 -106 13 -24 29 -63 35 -86 13 -48 34 -73 61 -73 61 0 66 -34 8
-46 -45 -10 -47 -12 -88 -114 -12 -30 -27 -68 -33 -83 -10 -24 -8 -34 11 -68
19 -33 20 -40 8 -45 -9 -3 -27 4 -42 15 -35 27 -41 27 -108 -9 -31 -16 -72
-32 -91 -36 -40 -7 -55 -23 -64 -67 -10 -49 -35 -46 -49 7 -11 43 -14 45 -69
61 -32 9 -78 29 -102 43 l-44 26 -40 -23 c-51 -30 -65 -17 -36 33 l22 37 -31
67 c-16 37 -35 84 -42 105 -10 33 -17 39 -56 49 -53 15 -56 39 -7 49 44 9 60
24 67 63 4 19 20 59 36 90 35 66 36 75 10 109 -11 14 -17 32 -14 41 8 20 11
20 41 -4 34 -27 50 -25 125 10 34 16 70 30 78 30 29 0 59 30 66 65 4 25 11 35
25 35 14 0 19 -7 19 -25z m-472 -255 c-16 -38 -27 -52 -47 -56 -71 -14 -76
-22 -79 -121 -3 -88 -2 -92 24 -112 15 -12 39 -21 54 -21 22 0 29 -8 48 -53
27 -64 27 -63 2 -94 -34 -43 -26 -71 37 -135 64 -65 94 -73 142 -37 l28 20 55
-23 c50 -20 57 -26 62 -56 10 -62 28 -72 127 -72 98 0 109 7 123 76 6 26 16
34 61 53 l55 23 29 -21 c49 -35 77 -28 143 37 32 33 58 68 58 79 0 11 -11 36
-24 56 -20 30 -22 38 -12 53 12 15 15 14 35 -14 12 -17 28 -47 37 -68 18 -43
20 -154 4 -184 -27 -50 14 -90 89 -90 76 0 143 -68 144 -147 1 -65 -26 -110
-82 -140 l-44 -23 -1016 0 c-971 0 -1018 1 -1057 19 -47 21 -70 50 -85 104
-20 75 25 151 109 186 40 17 49 48 29 99 -35 87 -29 192 14 276 29 57 95 123
154 154 39 20 69 26 135 30 107 5 170 -17 253 -88 32 -27 64 -50 71 -50 27 0
47 28 61 85 24 91 53 145 114 205 50 50 127 98 158 100 8 0 5 -17 -9 -50z"/>
<path d="M2912 4049 c-104 -14 -196 -98 -228 -206 -39 -133 24 -271 152 -334
75 -37 180 -34 253 6 101 56 151 142 151 259 -1 109 -57 199 -154 245 -73 35
-103 40 -174 30z m105 -120 c95 -35 139 -149 93 -239 -29 -57 -73 -84 -145
-88 -50 -3 -66 0 -95 20 -19 13 -45 39 -58 58 -20 29 -23 45 -20 95 4 74 30
114 90 144 47 23 92 27 135 10z"/>
<path d="M977 3958 c-41 -37 -197 -258 -197 -279 0 -22 33 -59 53 -59 21 0 52
26 83 71 l29 42 5 -402 5 -403 24 -19 c26 -21 58 -18 79 9 9 12 12 112 12 421
l0 406 40 -57 c46 -65 70 -77 105 -54 43 28 33 58 -67 195 -108 149 -98 137
-125 145 -14 5 -29 0 -46 -16z"/>
<path d="M4070 3960 c-19 -19 -20 -33 -20 -427 l0 -408 -40 57 c-46 65 -70 77
-105 54 -43 -28 -32 -58 68 -196 99 -138 122 -159 155 -141 17 9 144 173 196
253 22 33 15 72 -14 88 -32 17 -58 3 -98 -53 l-37 -51 -5 403 -5 403 -24 19
c-30 24 -46 24 -71 -1z"/>
<path d="M802 2664 c-21 -14 -22 -22 -22 -150 0 -180 -9 -171 217 -208 l171
-29 31 -98 c17 -54 54 -143 82 -199 29 -58 47 -105 43 -113 -5 -6 -50 -71
-101 -143 -66 -93 -93 -140 -93 -161 0 -24 28 -57 173 -201 146 -145 178 -172
203 -172 21 0 67 27 168 100 76 55 141 100 145 100 3 0 49 -22 102 -49 53 -26
142 -63 197 -81 l99 -32 29 -172 c23 -142 32 -174 50 -193 23 -23 27 -23 264
-23 237 0 241 0 264 23 18 19 27 51 50 193 l29 172 99 32 c55 18 144 55 197
81 53 27 102 47 109 44 7 -2 73 -47 146 -100 94 -67 142 -95 162 -95 23 0 58
30 201 173 143 143 173 178 173 201 0 20 -28 68 -95 162 -53 73 -98 139 -100
146 -3 7 17 57 44 110 27 53 63 141 80 196 l32 99 172 28 c225 38 217 30 217
205 0 117 -2 132 -20 150 -19 19 -33 20 -379 20 -327 0 -361 -2 -379 -17 -16
-14 -22 -39 -31 -124 -28 -256 -119 -447 -298 -620 -206 -200 -483 -297 -768
-268 -475 49 -828 407 -876 889 -9 85 -15 108 -31 123 -18 15 -52 17 -377 17
-307 0 -360 -2 -379 -16z m673 -151 c29 -223 97 -395 221 -559 198 -263 526
-424 864 -424 438 0 839 268 1005 672 34 81 68 214 80 311 l6 47 290 0 289 0
0 -60 c0 -69 22 -59 -192 -94 -80 -14 -155 -29 -165 -34 -12 -7 -28 -43 -46
-107 -31 -111 -73 -212 -128 -307 -22 -36 -39 -73 -39 -81 0 -8 45 -78 100
-156 55 -77 100 -144 100 -148 0 -10 -242 -253 -253 -253 -4 0 -71 45 -148
100 -78 55 -148 100 -156 100 -9 0 -41 -16 -72 -35 -98 -59 -275 -129 -378
-150 -17 -3 -36 -12 -42 -18 -5 -7 -21 -82 -36 -167 -14 -85 -27 -165 -30
-177 -5 -23 -7 -23 -185 -23 -162 0 -179 2 -184 18 -2 9 -14 78 -26 152 -12
74 -26 149 -31 166 -11 34 -21 40 -129 70 -91 25 -210 76 -293 125 -60 36 -74
41 -97 32 -14 -5 -83 -51 -152 -101 -70 -51 -130 -92 -135 -92 -10 0 -253 242
-253 253 0 4 45 71 100 148 55 78 100 149 100 158 0 9 -9 30 -21 46 -56 82
-168 359 -169 416 0 29 -23 37 -180 64 -85 14 -165 27 -177 30 -21 5 -23 11
-23 65 l0 60 289 0 290 0 6 -47z"/>
<path d="M1699 2659 c-20 -20 -21 -28 -14 -101 29 -340 243 -626 557 -748 466
-180 989 64 1147 537 51 151 64 280 31 313 -20 20 -33 20 -860 20 l-840 0 -21
-21z m1621 -122 c0 -46 -41 -183 -75 -254 -76 -155 -200 -276 -358 -352 -114
-54 -191 -71 -328 -71 -141 0 -216 17 -334 75 -163 79 -272 188 -350 350 -39
82 -75 203 -75 254 0 21 0 21 760 21 l760 0 0 -23z"/>
</g>
</svg>
