<?xml version="1.0" standalone="no"?>
<!DOCTYPE svg PUBLIC "-//W3C//DTD SVG 20010904//EN"
 "http://www.w3.org/TR/2001/REC-SVG-20010904/DTD/svg10.dtd">
<svg version="1.0" xmlns="http://www.w3.org/2000/svg"
 width="512.000000pt" height="512.000000pt" viewBox="0 0 512.000000 512.000000"
 preserveAspectRatio="xMidYMid meet">

<g transform="translate(0.000000,512.000000) scale(0.100000,-0.100000)"
fill="#000000" stroke="none">
<path d="M1775 4899 c-372 -47 -668 -318 -741 -678 -20 -102 -15 -280 11 -381
37 -140 124 -291 225 -391 162 -159 364 -241 595 -243 290 -2 545 132 706 370
95 141 137 268 146 439 21 424 -289 810 -701 874 -96 15 -176 19 -241 10z
m280 -154 c196 -53 365 -193 455 -380 51 -104 72 -197 71 -315 -1 -395 -321
-710 -721 -710 -77 0 -235 37 -301 70 -144 74 -257 186 -325 325 -57 117 -75
188 -76 310 -1 133 14 201 72 320 96 199 257 328 480 386 90 23 249 20 345 -6z"/>
<path d="M3760 3484 c-287 -61 -505 -281 -565 -569 -21 -99 -19 -147 6 -179
l20 -26 193 0 c212 0 236 6 236 59 0 96 72 205 158 238 129 49 267 -6 323
-129 23 -52 24 -60 27 -380 l3 -328 -403 0 -403 1 -55 87 c-220 348 -588 620
-985 727 -166 44 -289 58 -494 53 -271 -7 -452 -49 -688 -163 -176 -84 -309
-179 -458 -329 -275 -276 -428 -571 -491 -946 -20 -118 -30 -485 -15 -578 19
-122 73 -208 168 -269 103 -66 45 -63 1339 -63 l1171 0 5 -104 c5 -84 11 -116
32 -163 35 -76 104 -144 180 -180 l61 -28 775 0 775 0 60 24 c81 33 163 115
196 196 l24 60 0 695 0 695 -23 56 c-43 108 -154 202 -254 215 l-46 6 -5 362
c-5 399 -9 430 -72 561 -72 150 -188 267 -340 340 -146 71 -305 92 -455 59z
m294 -140 c182 -47 336 -190 404 -375 l27 -74 3 -362 3 -363 -100 0 -101 0 0
328 c0 271 -3 338 -16 383 -32 108 -110 199 -213 248 -49 23 -69 26 -156 26
-88 0 -107 -4 -162 -29 -40 -18 -80 -47 -113 -82 -49 -52 -100 -141 -100 -176
0 -16 -12 -18 -105 -18 l-105 0 6 28 c19 84 29 113 62 176 70 133 217 251 363
290 73 20 226 20 303 0z m-2033 -444 c447 -46 848 -275 1114 -639 67 -91 68
-99 5 -100 -49 -2 -144 -56 -196 -114 -91 -99 -88 -76 -92 -685 l-3 -532
-1193 2 -1193 3 -49 30 c-30 19 -60 49 -79 80 l-30 49 0 265 c0 286 8 354 61
528 111 371 365 697 698 898 283 170 629 248 957 215z m2653 -882 c53 -16 118
-81 134 -134 17 -59 17 -1329 0 -1388 -17 -56 -82 -119 -138 -135 -34 -9 -223
-11 -791 -9 l-745 3 -42 28 c-23 15 -54 46 -69 69 l-28 42 -3 683 c-2 655 -2
686 17 727 20 47 72 94 123 113 48 17 1484 18 1542 1z"/>
<path d="M3761 1844 c-221 -47 -409 -214 -488 -431 -102 -281 7 -613 255 -776
451 -297 1042 14 1044 549 0 110 -16 182 -63 283 -68 147 -171 251 -315 322
-136 66 -288 85 -433 53z m301 -144 c246 -76 412 -342 370 -592 -34 -201 -189
-376 -381 -432 -72 -21 -221 -21 -292 0 -171 50 -307 182 -365 354 -28 82 -25
254 5 335 58 159 189 284 350 336 80 26 229 25 313 -1z"/>
<path d="M3991 1268 c-169 -134 -206 -159 -215 -147 -6 8 -44 54 -85 102 -61
72 -78 87 -102 87 -16 0 -38 -9 -49 -20 -39 -39 -27 -66 86 -200 103 -122 142
-154 174 -142 18 7 460 358 478 380 18 23 15 66 -6 85 -42 38 -67 25 -281
-145z"/>
</g>
</svg>
