<?xml version="1.0" standalone="no"?>
<!DOCTYPE svg PUBLIC "-//W3C//DTD SVG 20010904//EN"
 "http://www.w3.org/TR/2001/REC-SVG-20010904/DTD/svg10.dtd">
<svg version="1.0" xmlns="http://www.w3.org/2000/svg"
 width="512.000000pt" height="512.000000pt" viewBox="0 0 512.000000 512.000000"
 preserveAspectRatio="xMidYMid meet">

<g transform="translate(0.000000,512.000000) scale(0.100000,-0.100000)"
fill="#000000" stroke="none">
<path d="M2430 4927 c-65 -22 -1744 -950 -1874 -1035 -84 -56 -148 -138 -176
-229 -19 -63 -20 -92 -20 -1103 0 -1006 1 -1040 20 -1102 24 -79 81 -161 142
-208 69 -52 1843 -1034 1908 -1056 74 -25 196 -24 270 3 68 25 1828 1002 1891
1050 59 44 111 112 141 183 l23 55 0 1075 0 1075 -23 55 c-36 84 -93 153 -169
202 -130 86 -1808 1013 -1873 1035 -86 30 -175 30 -260 0z m255 -126 c27 -12
447 -243 933 -514 641 -357 897 -504 929 -535 24 -23 54 -64 66 -90 l22 -47 0
-1055 0 -1055 -28 -57 c-16 -32 -45 -72 -67 -90 -29 -26 -1645 -933 -1850
-1040 -37 -19 -60 -23 -130 -23 -73 1 -93 5 -140 29 -30 16 -451 249 -935 518
-958 532 -943 522 -984 634 -21 54 -21 69 -21 1084 0 1019 0 1030 21 1085 35
94 84 133 380 297 145 80 552 307 904 503 352 195 660 362 685 370 59 19 154
13 215 -14z"/>
<path d="M2575 4323 c-89 -113 -135 -241 -135 -379 0 -119 28 -203 87 -260 25
-24 51 -44 59 -44 8 0 14 -10 14 -25 0 -25 -2 -24 -64 23 -95 73 -254 131
-359 132 -32 0 -67 -45 -67 -87 1 -122 66 -284 153 -376 29 -32 46 -55 38 -52
-9 4 -46 9 -82 12 -59 5 -69 3 -88 -16 -25 -25 -27 -67 -6 -166 22 -102 75
-206 142 -277 32 -34 49 -58 38 -53 -11 4 -52 10 -91 12 -66 5 -72 4 -88 -18
-20 -29 -20 -73 -1 -164 23 -111 77 -209 159 -291 93 -92 148 -119 244 -119
l72 0 0 -117 0 -118 -535 0 -535 0 0 194 0 193 66 6 c240 23 455 287 442 543
-5 101 -13 108 -113 101 -44 -3 -92 -9 -106 -12 -24 -6 -26 -4 -38 61 -27 148
-98 283 -198 374 -73 67 -96 67 -159 -2 -67 -75 -133 -180 -170 -271 -17 -43
-34 -80 -37 -83 -3 -3 -32 9 -66 25 -82 42 -168 61 -277 61 -83 0 -92 -2 -113
-24 -22 -23 -22 -26 -11 -124 13 -125 41 -225 87 -322 28 -58 54 -93 117 -155
119 -118 248 -175 393 -175 l63 0 0 -195 0 -195 -338 0 c-316 0 -340 -1 -355
-18 -22 -24 -21 -65 1 -85 17 -16 159 -17 1838 -17 2002 0 1864 -4 1864 59 0
58 -12 61 -278 61 l-242 0 0 104 c0 118 -7 110 95 121 78 8 156 44 188 86 14
19 65 125 113 237 l88 202 -21 28 c-14 18 -29 26 -45 25 -14 -1 -114 -40 -224
-88 -109 -48 -203 -89 -209 -91 -5 -2 -18 16 -29 41 -29 71 -82 108 -290 201
-201 91 -230 97 -254 54 -14 -24 -9 -39 69 -229 114 -275 144 -309 299 -326
110 -11 100 8 100 -191 l0 -174 -535 0 -535 0 0 118 0 117 73 0 c95 0 150 27
243 119 82 82 136 180 159 291 21 99 19 141 -6 166 -19 19 -29 21 -88 16 -36
-3 -73 -8 -82 -12 -9 -3 5 17 31 44 60 64 115 169 140 267 26 100 26 144 -1
178 -21 26 -25 27 -83 21 -33 -3 -70 -9 -80 -12 -13 -4 -2 15 33 53 112 126
186 368 133 435 -17 19 -27 22 -81 20 -65 -2 -170 -30 -231 -61 -19 -10 -63
-39 -97 -64 -61 -45 -63 -45 -63 -21 0 17 9 29 29 39 76 40 121 133 128 266 9
155 -40 297 -138 404 -70 76 -93 76 -154 -1z m122 -156 c50 -99 68 -229 43
-319 -14 -49 -56 -98 -84 -98 -67 0 -100 77 -94 217 4 98 25 165 74 241 19 29
28 23 61 -41z m-322 -567 c119 -57 215 -166 215 -245 0 -53 -13 -65 -70 -65
-77 0 -183 87 -238 195 -16 33 -52 137 -52 153 0 12 91 -12 145 -38z m694 -2
c-15 -67 -62 -159 -109 -211 -107 -120 -246 -140 -242 -34 4 99 137 226 286
273 71 22 75 20 65 -28z m-1459 -432 c34 -70 60 -164 60 -217 0 -33 -5 -40
-44 -63 -24 -14 -64 -46 -88 -71 -23 -24 -46 -45 -49 -45 -4 0 -19 19 -34 42
-16 24 -51 67 -78 95 -42 44 -49 57 -44 81 13 64 53 149 110 235 l61 90 38
-43 c21 -23 51 -70 68 -104z m980 -32 l0 -36 -33 29 c-35 29 -31 43 11 43 19
0 22 -5 22 -36z m184 27 c16 -6 14 -10 -17 -34 -20 -15 -38 -27 -41 -27 -3 0
-6 16 -6 35 0 30 3 35 23 34 12 0 30 -4 41 -8z m-398 -62 c74 -35 167 -117
195 -170 10 -21 19 -56 19 -78 0 -47 -18 -61 -77 -61 -70 0 -179 92 -231 195
-16 33 -52 137 -52 153 0 12 91 -12 146 -39z m693 1 c-36 -160 -174 -310 -285
-310 -26 0 -47 6 -55 16 -17 21 -15 74 6 114 24 47 102 127 151 156 50 30 140
63 170 64 20 0 21 -3 13 -40z m-2023 -118 c178 -62 316 -195 364 -350 21 -66
26 -147 12 -170 -25 -38 -186 -15 -282 40 -83 47 -154 126 -199 221 -39 81
-71 198 -71 256 0 30 1 31 48 31 26 0 83 -13 128 -28z m874 -152 c0 -47 -38
-148 -77 -207 -61 -92 -160 -159 -249 -169 l-49 -6 1 88 c0 98 9 122 69 191
51 59 200 129 283 132 18 1 22 -4 22 -29z m1671 -166 c116 -51 157 -83 163
-128 3 -17 7 -50 11 -73 l5 -43 -35 0 c-56 0 -121 20 -144 44 -16 17 -111 224
-111 242 0 7 5 5 111 -42z m-1001 -25 l0 -40 -40 33 -39 33 37 6 c20 3 38 7
40 8 1 0 2 -17 2 -40z m175 -4 c-22 -19 -43 -34 -47 -35 -5 0 -8 16 -8 35 l0
35 48 0 47 0 -40 -35z m-387 -35 c71 -33 165 -117 193 -172 23 -45 25 -101 3
-122 -20 -21 -76 -20 -117 0 -109 56 -189 171 -221 315 -6 27 -6 27 37 17 23
-5 70 -22 105 -38z m688 -1 c-16 -98 -90 -208 -183 -271 -59 -41 -113 -50
-147 -25 -24 18 -23 74 2 123 21 40 94 116 147 151 38 26 133 62 164 62 22 1
23 -2 17 -40z m1082 -155 c-51 -114 -55 -120 -98 -141 -25 -11 -69 -23 -97
-26 l-53 -4 0 68 c0 94 19 113 175 178 66 27 121 48 123 47 1 -2 -21 -57 -50
-122z"/>
<path d="M1242 1495 c-26 -19 -30 -66 -6 -89 14 -14 47 -16 252 -14 l236 3 15
27 c14 25 14 29 -5 55 l-21 28 -224 3 c-191 2 -227 0 -247 -13z"/>
<path d="M2340 1490 c-24 -24 -25 -48 -4 -78 15 -22 19 -22 248 -22 213 0 234
2 249 18 24 26 21 68 -5 86 -19 13 -60 16 -245 16 -210 0 -224 -1 -243 -20z"/>
<path d="M3391 1484 c-25 -32 -26 -43 -5 -72 15 -22 19 -22 249 -22 257 0 265
2 265 60 0 56 -20 60 -266 60 l-223 0 -20 -26z"/>
<path d="M1850 1017 c-18 -9 -26 -22 -28 -48 -5 -62 2 -64 260 -64 229 0 230
0 249 24 25 31 24 47 -6 76 -24 25 -24 25 -237 25 -151 0 -220 -4 -238 -13z"/>
<path d="M2795 1005 c-30 -29 -31 -45 -6 -76 19 -24 20 -24 249 -24 258 0 265
2 260 64 -5 57 -23 61 -266 61 -213 0 -213 0 -237 -25z"/>
</g>
</svg>
