<?xml version="1.0" standalone="no"?>
<!DOCTYPE svg PUBLIC "-//W3C//DTD SVG 20010904//EN"
 "http://www.w3.org/TR/2001/REC-SVG-20010904/DTD/svg10.dtd">
<svg version="1.0" xmlns="http://www.w3.org/2000/svg"
 width="512.000000pt" height="512.000000pt" viewBox="0 0 512.000000 512.000000"
 preserveAspectRatio="xMidYMid meet">

<g transform="translate(0.000000,512.000000) scale(0.100000,-0.100000)"
fill="#000000" stroke="none">
<path d="M559 4306 c-96 -34 -159 -104 -179 -199 -8 -37 -10 -488 -8 -1577 3
-1443 4 -1527 21 -1565 23 -50 80 -110 132 -138 l40 -22 1970 -3 c2211 -3
2032 -9 2123 73 95 86 87 -74 87 1690 l0 1550 -22 46 c-28 56 -74 104 -127
132 l-41 22 -1980 2 c-1602 2 -1987 0 -2016 -11z m4001 -118 c73 -50 75 -56
78 -294 l3 -214 -2081 0 -2081 0 3 214 c3 238 5 244 78 294 l33 22 1967 0
1967 0 33 -22z m78 -1897 l-3 -1280 -21 -28 c-11 -15 -36 -38 -54 -51 l-33
-22 -1967 0 -1967 0 -33 22 c-18 13 -43 36 -54 51 l-21 28 -3 1280 -2 1279
2080 0 2080 0 -2 -1279z"/>
<path d="M890 4088 c-148 -76 -96 -298 70 -298 113 0 186 109 145 216 -33 87
-132 125 -215 82z m101 -98 c29 -16 25 -65 -6 -86 -23 -15 -27 -15 -50 0 -44
29 -28 95 23 96 7 0 22 -5 33 -10z"/>
<path d="M1320 4088 c-83 -42 -113 -131 -74 -214 34 -70 136 -103 210 -68 122
58 114 236 -13 290 -45 19 -72 18 -123 -8z m102 -105 c24 -21 23 -48 -3 -74
-22 -22 -55 -19 -76 9 -18 22 -16 39 7 62 24 24 47 25 72 3z"/>
<path d="M1760 4099 c-74 -29 -120 -116 -100 -188 50 -187 326 -142 308 51 -6
61 -31 96 -88 126 -47 24 -80 27 -120 11z m91 -120 c11 -11 18 -27 15 -36 -3
-8 -6 -19 -6 -24 0 -17 -50 -30 -71 -19 -28 15 -35 57 -14 80 23 26 50 25 76
-1z"/>
<path d="M1659 3223 c-50 -46 -116 -138 -158 -220 -33 -66 -81 -219 -81 -259
0 -38 -17 -37 -81 7 -121 82 -274 135 -424 146 -102 7 -115 -2 -115 -85 1
-133 51 -301 127 -431 73 -124 229 -269 360 -335 107 -53 250 -96 326 -96 l37
0 0 -341 c0 -215 4 -347 10 -360 14 -25 61 -25 83 -1 15 17 17 56 17 354 l0
336 28 6 c15 2 49 8 77 11 132 18 303 99 431 204 175 145 295 384 311 621 7
105 -3 120 -78 120 -127 0 -326 -64 -448 -144 -88 -58 -83 -59 -96 19 -22 138
-106 308 -211 428 -54 61 -67 63 -115 20z m107 -184 c59 -89 98 -182 118 -281
25 -123 23 -137 -35 -209 -28 -35 -72 -105 -97 -156 l-46 -92 -44 87 c-24 48
-69 120 -99 159 l-55 72 7 68 c8 79 54 225 92 291 38 67 95 142 104 136 4 -2
29 -36 55 -75z m-709 -275 c143 -37 248 -98 359 -209 109 -107 198 -278 219
-420 3 -22 8 -50 11 -63 5 -23 3 -23 -43 -17 -270 37 -508 212 -623 456 -32
70 -70 205 -70 252 0 29 0 29 46 22 25 -3 71 -13 101 -21z m1443 -7 c0 -56
-37 -182 -75 -259 -80 -159 -205 -286 -360 -363 -88 -44 -221 -85 -275 -85
l-27 0 9 61 c17 129 89 290 175 396 111 135 306 245 493 276 57 10 60 9 60
-26z"/>
<path d="M2944 3225 c-15 -23 -15 -27 0 -50 l16 -25 560 0 560 0 16 25 c15 23
15 27 0 50 l-16 25 -560 0 -560 0 -16 -25z"/>
<path d="M2950 2810 c-24 -24 -25 -38 -4 -68 l15 -22 343 0 c319 0 344 1 359
18 23 26 21 58 -5 76 -19 14 -70 16 -355 16 -320 0 -334 -1 -353 -20z"/>
<path d="M3961 2598 c-54 -18 -137 -101 -155 -155 -9 -26 -16 -59 -16 -73 l0
-27 -50 25 c-107 53 -217 36 -300 -47 -46 -46 -80 -117 -80 -166 l0 -22 -51
25 c-141 70 -319 -9 -364 -161 -23 -76 -22 -712 1 -745 l15 -22 669 0 c651 0
670 1 680 19 6 13 10 212 10 579 0 621 1 612 -67 691 -50 59 -103 84 -188 87
-38 2 -85 -2 -104 -8z m159 -110 c24 -13 53 -36 64 -51 21 -28 21 -41 24 -568
l3 -540 -158 3 -158 3 -3 495 c-2 272 0 514 3 538 10 71 86 141 155 142 14 0
46 -10 70 -22z m-401 -227 c67 -48 66 -40 66 -506 l0 -420 -157 -3 -158 -3 0
422 c0 475 -1 469 74 515 52 32 126 30 175 -5z m-426 -214 c65 -50 67 -60 67
-406 l0 -311 -160 0 -160 0 0 310 c0 240 3 318 14 343 39 92 160 125 239 64z"/>
</g>
</svg>
