<?xml version="1.0" standalone="no"?>
<!DOCTYPE svg PUBLIC "-//W3C//DTD SVG 20010904//EN"
 "http://www.w3.org/TR/2001/REC-SVG-20010904/DTD/svg10.dtd">
<svg version="1.0" xmlns="http://www.w3.org/2000/svg"
 width="512.000000pt" height="512.000000pt" viewBox="0 0 512.000000 512.000000"
 preserveAspectRatio="xMidYMid meet">

<g transform="translate(0.000000,512.000000) scale(0.100000,-0.100000)"
fill="#000000" stroke="none">
<path d="M3964 3821 c-42 -19 -86 -68 -99 -108 l-6 -23 -428 0 c-331 0 -431
-3 -438 -12 -5 -7 -33 -63 -62 -125 -56 -118 -61 -155 -22 -166 33 -8 56 18
101 118 l44 95 400 0 401 0 25 -46 c31 -59 85 -96 150 -102 128 -12 243 116
211 235 -34 126 -161 187 -277 134z m136 -86 c37 -19 50 -43 50 -95 0 -87
-100 -130 -169 -73 -49 41 -43 130 12 163 38 24 68 25 107 5z"/>
<path d="M1040 3814 c-139 -60 -160 -240 -39 -336 93 -75 256 -27 299 88 l10
24 235 -2 235 -3 45 -95 c49 -105 71 -128 104 -110 33 17 25 54 -37 180 l-57
115 -263 3 -263 2 -10 28 c-14 37 -67 91 -108 108 -43 18 -107 17 -151 -2z
m146 -108 c48 -48 47 -95 -1 -143 -32 -32 -40 -35 -77 -30 -59 8 -93 45 -93
101 0 97 103 140 171 72z"/>
<path d="M2900 3269 c-88 -11 -182 -37 -255 -69 -115 -52 -235 -165 -286 -271
-13 -26 -26 -48 -29 -49 -3 0 -20 29 -38 64 -49 95 -158 196 -264 245 -138 64
-199 76 -388 75 -144 -1 -177 -4 -261 -27 -179 -47 -339 -131 -446 -232 -34
-33 -63 -66 -63 -73 0 -23 37 -49 80 -56 102 -16 207 -84 405 -261 230 -205
343 -274 495 -301 111 -19 254 -1 368 48 24 10 46 18 48 18 2 0 4 -101 4 -224
l0 -223 -82 -6 c-263 -19 -522 -155 -663 -347 -88 -119 -141 -268 -104 -291
23 -14 1783 -11 1797 3 20 20 14 59 -22 140 -117 269 -381 445 -736 491 l-95
13 -3 227 c-1 125 1 227 5 227 5 0 41 -14 82 -30 187 -77 352 -73 526 11 95
45 161 94 309 226 215 193 321 262 425 279 42 7 81 33 81 54 0 22 -87 104
-170 159 -140 93 -326 162 -480 176 -132 12 -176 12 -240 4z m-1015 -119 c131
-42 218 -99 286 -190 70 -93 108 -210 109 -334 l0 -59 -52 49 c-141 131 -272
224 -412 290 -172 81 -240 87 -234 22 3 -28 9 -34 43 -47 182 -65 255 -103
385 -201 101 -76 233 -201 223 -210 -27 -25 -166 -63 -249 -67 -194 -11 -304
44 -579 291 -137 123 -258 211 -337 242 -27 10 -48 21 -48 24 0 9 120 85 186
118 147 74 288 103 474 98 104 -3 151 -9 205 -26z m1375 0 c47 -12 119 -38
160 -57 71 -32 220 -122 220 -133 0 -3 -26 -15 -57 -28 -81 -33 -180 -105
-328 -237 -205 -184 -291 -242 -414 -279 -100 -29 -262 -15 -376 34 l-49 21
60 60 c160 163 341 276 559 351 34 12 40 18 43 46 7 66 -64 59 -236 -23 -149
-71 -277 -162 -414 -294 l-48 -45 0 65 c0 82 31 207 67 268 81 139 232 239
411 271 83 16 307 4 402 -20z m-759 -1325 c215 -37 414 -143 519 -276 45 -57
84 -122 95 -156 l6 -23 -800 0 c-545 0 -801 3 -801 10 0 20 53 115 89 161 80
101 223 199 356 244 155 53 372 69 536 40z"/>
<path d="M3652 2319 c-43 -22 -74 -56 -92 -103 l-10 -26 -499 0 c-441 0 -501
-2 -515 -16 -19 -18 -20 -28 -6 -55 10 -18 27 -19 514 -19 l504 0 22 -46 c69
-142 285 -136 351 11 76 166 -103 336 -269 254z m132 -79 c29 -11 66 -64 66
-96 0 -12 -10 -36 -23 -55 -42 -63 -139 -62 -172 2 -49 93 32 186 129 149z"/>
</g>
</svg>
