<?xml version="1.0" standalone="no"?>
<!DOCTYPE svg PUBLIC "-//W3C//DTD SVG 20010904//EN"
 "http://www.w3.org/TR/2001/REC-SVG-20010904/DTD/svg10.dtd">
<svg version="1.0" xmlns="http://www.w3.org/2000/svg"
 width="689.000000pt" height="240.000000pt" viewBox="0 0 689.000000 240.000000"
 preserveAspectRatio="xMidYMid meet">

<g transform="translate(0.000000,240.000000) scale(0.100000,-0.100000)"
fill="#000000" stroke="none">
<path d="M4430 2164 c-41 -7 -90 -16 -108 -19 l-32 -6 2 -931 3 -932 50 -13
c131 -34 235 -47 385 -47 171 -1 221 9 334 66 89 45 194 154 239 248 49 103
67 176 74 306 9 174 -20 322 -92 464 -36 70 -144 177 -215 213 -133 65 -291
72 -449 17 -49 -16 -91 -30 -95 -30 -3 0 -6 153 -6 340 0 187 -3 340 -7 339
-5 -1 -42 -7 -83 -15z m517 -834 c132 -65 195 -207 195 -440 0 -279 -104 -429
-328 -471 -62 -12 -178 -6 -251 13 l-43 10 0 407 0 408 23 21 c27 25 127 71
182 82 68 15 154 3 222 -30z"/>
<path d="M320 1980 c-47 -5 -115 -14 -152 -20 l-68 -12 0 -854 0 -854 115 0
115 0 0 324 0 324 193 5 c158 4 205 9 267 27 185 54 290 153 347 328 21 63 26
98 27 192 0 124 -14 190 -61 284 -53 105 -189 202 -338 242 -72 19 -322 27
-445 14z m402 -210 c82 -25 147 -80 179 -152 21 -47 24 -68 24 -178 0 -109 -3
-131 -23 -175 -62 -135 -184 -185 -449 -185 l-123 0 0 348 c0 192 3 352 7 355
3 4 77 7 164 7 129 0 169 -4 221 -20z"/>
<path d="M2033 1560 c-120 -10 -235 -32 -350 -66 l-83 -25 0 -614 0 -615 110
0 110 0 0 539 0 539 70 16 c168 39 356 42 514 10 38 -7 71 -12 73 -11 1 2 11
46 22 98 13 63 16 96 9 100 -36 22 -333 40 -475 29z"/>
<path d="M6093 1556 c-243 -56 -417 -240 -468 -495 -24 -118 -16 -305 17 -418
88 -293 340 -448 698 -430 115 6 183 18 277 49 55 17 62 22 58 41 -3 12 -10
53 -15 92 -6 38 -13 71 -15 73 -1 2 -34 -6 -72 -19 -86 -27 -324 -39 -412 -19
-167 37 -274 143 -310 308 -22 103 -75 92 454 92 l465 0 0 63 c-1 352 -124
575 -360 648 -86 26 -235 33 -317 15z m258 -209 c96 -40 168 -150 177 -269 l5
-68 -340 0 c-187 0 -342 2 -345 5 -3 4 -1 25 4 48 35 160 165 287 310 306 63
8 139 -1 189 -22z"/>
</g>
</svg>
