<?xml version="1.0" standalone="no"?>
<!DOCTYPE svg PUBLIC "-//W3C//DTD SVG 20010904//EN"
 "http://www.w3.org/TR/2001/REC-SVG-20010904/DTD/svg10.dtd">
<svg version="1.0" xmlns="http://www.w3.org/2000/svg"
 width="512.000000pt" height="512.000000pt" viewBox="0 0 512.000000 512.000000"
 preserveAspectRatio="xMidYMid meet">

<g transform="translate(0.000000,512.000000) scale(0.100000,-0.100000)"
fill="#000000" stroke="none">
<path d="M427 4693 c-4 -3 -7 -532 -7 -1175 l0 -1168 110 0 110 0 0 105 0 105
105 0 105 0 0 105 0 105 -105 0 -105 0 0 855 0 855 1920 0 1920 0 0 -1920 0
-1920 -855 0 -855 0 0 105 0 105 -105 0 -105 0 0 -105 0 -105 -105 0 -105 0 0
-110 0 -110 1173 2 1172 3 3 2131 2 2131 -877 6 c-1137 9 -3388 9 -3396 0z"/>
<path d="M2553 3198 l-423 -423 -210 210 -210 210 0 -743 0 -742 742 0 743 0
-210 210 -210 210 423 423 c232 232 422 427 422 432 0 13 -622 635 -635 635
-6 0 -200 -190 -432 -422z m607 -43 l165 -165 -428 -428 -427 -427 107 -108
108 -107 -383 0 -382 0 0 382 0 383 108 -108 107 -107 425 425 c234 234 427
425 430 425 3 0 79 -74 170 -165z"/>
<path d="M1070 2665 l0 -105 210 0 210 0 0 105 0 105 -210 0 -210 0 0 -105z"/>
<path d="M420 1920 l0 -210 110 0 110 0 0 210 0 210 -110 0 -110 0 0 -210z"/>
<path d="M420 1280 l0 -210 110 0 110 0 0 210 0 210 -110 0 -110 0 0 -210z"/>
<path d="M2560 1280 l0 -210 105 0 105 0 0 210 0 210 -105 0 -105 0 0 -210z"/>
<path d="M422 638 l3 -213 213 -3 212 -2 0 110 0 110 -105 0 -105 0 0 105 0
105 -110 0 -110 0 2 -212z"/>
<path d="M1070 530 l0 -110 210 0 210 0 0 110 0 110 -210 0 -210 0 0 -110z"/>
<path d="M1710 530 l0 -110 210 0 210 0 0 110 0 110 -210 0 -210 0 0 -110z"/>
</g>
</svg>
