<?xml version="1.0" standalone="no"?>
<!DOCTYPE svg PUBLIC "-//W3C//DTD SVG 20010904//EN"
 "http://www.w3.org/TR/2001/REC-SVG-20010904/DTD/svg10.dtd">
<svg version="1.0" xmlns="http://www.w3.org/2000/svg"
 width="512.000000pt" height="512.000000pt" viewBox="0 0 512.000000 512.000000"
 preserveAspectRatio="xMidYMid meet">

<g transform="translate(0.000000,512.000000) scale(0.100000,-0.100000)"
fill="#000000" stroke="none">
<path d="M1721 4551 c-10 -10 -21 -39 -25 -65 -4 -25 -13 -46 -19 -46 -7 0
-36 -12 -66 -25 l-54 -26 -37 26 c-59 41 -82 35 -156 -42 -35 -38 -64 -77 -64
-88 0 -11 11 -37 25 -58 l26 -37 -27 -70 c-23 -57 -32 -70 -49 -70 -36 0 -85
-21 -95 -40 -14 -26 -13 -167 1 -193 16 -29 25 -34 74 -41 41 -7 42 -8 69 -76
l27 -70 -26 -37 c-14 -21 -25 -47 -25 -58 0 -30 129 -155 159 -155 13 0 39 12
58 26 l34 26 69 -29 c68 -28 70 -29 76 -71 10 -69 32 -82 135 -82 103 0 123
12 136 79 8 43 11 46 75 74 l66 29 38 -26 c58 -39 77 -34 150 36 74 70 80 98
39 158 l-25 36 19 40 c11 22 23 52 26 67 6 22 14 27 52 33 73 11 83 28 83 137
0 108 -7 120 -79 134 -43 8 -45 10 -72 77 l-28 69 26 33 c40 53 34 77 -38 150
-73 74 -101 80 -156 38 l-34 -26 -47 22 c-25 12 -56 26 -68 30 -16 6 -23 20
-27 52 -9 65 -31 78 -138 78 -74 0 -92 -3 -108 -19z m143 -136 c7 -45 33 -75
67 -75 9 0 53 -18 98 -41 l82 -40 45 26 c36 21 48 24 60 15 19 -16 17 -30 -6
-60 -25 -32 -25 -67 0 -107 10 -18 28 -60 40 -94 26 -79 32 -87 86 -95 41 -6
45 -9 42 -33 -2 -21 -9 -27 -40 -32 -48 -7 -74 -31 -82 -74 -4 -18 -20 -60
-36 -92 -35 -68 -37 -99 -10 -133 24 -30 25 -44 5 -60 -13 -10 -22 -8 -53 14
-21 14 -42 26 -48 26 -5 0 -34 -13 -64 -29 -30 -16 -75 -35 -100 -42 -60 -17
-77 -33 -85 -80 -6 -35 -10 -39 -36 -39 -25 0 -29 4 -29 28 0 45 -22 75 -60
84 -19 5 -69 25 -112 45 l-76 36 -45 -26 c-43 -25 -45 -26 -61 -8 -15 16 -14
20 9 51 31 43 31 47 -4 117 -16 32 -34 76 -40 98 -15 59 -31 76 -79 82 -38 5
-42 8 -42 33 0 24 5 28 47 36 l48 9 26 75 c14 41 36 91 47 110 28 45 28 57 -4
103 -20 31 -23 41 -14 53 17 19 24 18 71 -13 l40 -26 72 36 c40 21 87 40 105
43 39 8 72 46 72 84 0 32 7 40 36 40 18 0 23 -7 28 -45z"/>
<path d="M1728 4215 c-100 -38 -174 -120 -205 -224 -53 -182 86 -378 282 -398
38 -4 73 0 125 16 268 82 298 450 49 586 -44 24 -68 29 -134 32 -52 2 -93 -2
-117 -12z m207 -128 c21 -12 53 -42 70 -65 26 -39 30 -52 30 -112 0 -60 -4
-74 -30 -111 -52 -75 -131 -106 -219 -87 -63 13 -141 86 -152 142 -35 191 136
323 301 233z"/>
<path d="M3266 4467 c-18 -18 -26 -44 -36 -109 l-13 -86 -41 -12 c-23 -7 -66
-25 -96 -40 l-56 -28 -74 54 c-43 31 -85 54 -99 54 -35 0 -231 -196 -231 -231
0 -14 23 -57 54 -99 l54 -75 -28 -55 c-15 -30 -33 -74 -40 -97 l-13 -41 -83
-12 c-54 -8 -93 -19 -109 -32 -25 -19 -25 -22 -25 -162 0 -173 2 -177 121
-196 42 -7 81 -15 86 -19 16 -9 85 -191 79 -204 -3 -7 -26 -41 -51 -76 -25
-35 -45 -74 -45 -86 0 -15 32 -56 98 -124 118 -123 125 -125 231 -50 l72 51
67 -30 c37 -16 80 -34 97 -39 28 -9 31 -15 46 -94 9 -46 19 -92 23 -101 11
-25 60 -38 147 -38 l79 0 0 -683 0 -683 -34 -12 c-56 -20 -122 -102 -137 -168
-38 -167 116 -323 279 -283 184 46 250 250 125 389 -24 27 -60 55 -79 62 l-34
12 0 113 0 113 195 0 195 0 21 -45 c40 -84 120 -135 213 -136 132 -2 239 105
238 238 -1 171 -176 283 -332 212 -59 -26 -87 -53 -116 -111 l-24 -48 -195 0
-195 0 1 533 c0 456 3 545 18 626 l17 93 64 24 c36 13 66 24 67 24 1 0 3 -193
5 -428 3 -475 1 -460 71 -502 30 -19 52 -20 349 -20 l318 0 15 -37 c63 -151
265 -193 384 -80 48 46 71 101 71 172 0 100 -55 183 -145 221 -47 19 -131 20
-178 1 -51 -22 -108 -77 -129 -125 l-19 -42 -307 2 -307 3 -3 413 -2 414 42
-31 c70 -52 87 -46 200 67 119 119 121 126 48 227 -27 38 -50 73 -50 78 0 4
11 29 24 55 13 26 29 66 36 89 14 47 14 47 116 63 112 18 114 22 114 194 0
174 0 174 -127 196 l-85 15 -34 85 c-19 47 -37 90 -40 97 -3 7 17 45 45 85 30
42 51 83 51 97 -1 39 -188 231 -225 231 -17 0 -55 -20 -102 -54 l-74 -54 -42
23 c-23 12 -66 30 -95 40 -60 19 -57 14 -73 114 -18 116 -26 121 -194 121
-129 0 -137 -1 -159 -23z m252 -177 c8 -47 21 -92 29 -101 8 -10 35 -22 61
-29 26 -6 85 -29 131 -51 46 -21 90 -39 98 -39 8 0 47 23 86 50 l71 50 55 -54
55 -55 -42 -58 c-72 -98 -71 -93 -25 -186 22 -45 48 -107 57 -138 9 -31 22
-62 30 -68 10 -8 155 -41 184 -41 1 0 2 -35 2 -78 l0 -79 -80 -11 c-44 -6 -89
-16 -99 -22 -12 -6 -27 -38 -41 -82 -12 -40 -37 -101 -56 -135 -19 -34 -34
-68 -34 -76 0 -7 23 -46 50 -85 28 -39 50 -75 50 -79 0 -10 -92 -103 -102
-103 -5 0 -41 22 -80 50 -39 27 -77 50 -83 50 -7 0 -41 -15 -76 -34 -35 -19
-97 -44 -137 -56 -39 -12 -75 -27 -79 -33 -4 -7 -15 -50 -23 -97 l-16 -85 -77
-3 c-87 -3 -77 -14 -98 108 -6 36 -15 70 -21 77 -5 7 -35 19 -66 28 -30 9 -91
34 -134 56 -42 21 -83 39 -90 39 -6 0 -45 -23 -85 -51 l-73 -50 -55 47 c-30
25 -55 50 -55 55 0 5 23 40 50 78 28 38 50 76 50 85 0 9 -15 47 -34 85 -19 37
-44 98 -56 134 -12 36 -27 70 -33 75 -7 6 -50 16 -97 24 l-85 13 -3 78 c-2 42
-2 77 0 77 42 0 176 34 188 47 9 10 24 45 34 78 10 33 33 89 52 125 19 35 34
71 34 80 0 9 -23 49 -51 89 l-52 73 55 55 55 55 71 -51 c38 -28 77 -51 86 -51
10 0 54 18 99 39 45 22 102 45 127 51 65 17 77 32 90 113 19 116 11 108 98
105 l77 -3 13 -85z m1293 -2323 c45 -30 61 -63 56 -116 -12 -117 -165 -150
-227 -48 -36 59 -18 130 43 167 42 26 86 25 128 -3z m-498 -475 c23 -23 31
-42 35 -80 4 -46 2 -53 -30 -87 -66 -72 -172 -52 -207 39 -13 33 -13 44 0 79
30 89 136 114 202 49z m-718 -486 c60 -26 85 -109 51 -174 -31 -60 -112 -80
-173 -42 -36 21 -50 43 -53 80 -4 51 1 69 27 100 42 51 86 61 148 36z"/>
<path d="M3280 4001 c-94 -30 -162 -71 -226 -135 -101 -101 -154 -231 -154
-376 0 -141 46 -254 146 -360 104 -109 222 -160 374 -160 160 0 262 42 376
155 109 108 154 214 154 364 0 154 -46 266 -150 372 -71 72 -152 119 -247 144
-77 20 -204 18 -273 -4z m213 -101 c189 -31 331 -186 344 -377 9 -133 -32
-237 -130 -331 -62 -58 -112 -85 -185 -101 -194 -41 -379 46 -467 218 -119
236 18 523 280 587 63 16 86 16 158 4z"/>
<path d="M1845 3234 c-142 -30 -264 -89 -356 -172 -67 -61 -150 -178 -169
-240 -7 -20 -16 -41 -20 -45 -4 -5 -31 3 -60 18 -206 104 -483 54 -656 -119
-113 -114 -165 -233 -170 -396 l-4 -105 -55 -18 c-77 -26 -154 -98 -189 -177
-25 -55 -28 -71 -24 -148 2 -66 9 -99 26 -135 31 -62 95 -127 157 -157 l50
-25 1390 -3 c1541 -3 1436 -7 1529 64 162 123 179 361 36 504 -39 39 -128 90
-159 90 -9 0 -12 8 -8 27 9 46 -12 155 -42 219 -75 160 -231 250 -419 242 -86
-3 -87 -3 -90 22 -6 53 -46 158 -83 222 -123 211 -352 341 -592 337 -40 -1
-81 -3 -92 -5z m217 -119 c112 -23 193 -68 278 -154 86 -87 133 -172 156 -284
l15 -71 -28 -20 c-41 -29 -91 -83 -121 -130 -56 -88 -80 -230 -45 -268 35 -38
93 -9 93 47 0 17 7 54 15 81 84 285 474 314 599 45 17 -38 21 -65 21 -156 0
-60 3 -115 7 -121 4 -6 31 -14 59 -18 63 -9 94 -24 136 -68 106 -110 77 -285
-60 -353 l-51 -25 -1345 0 c-931 0 -1358 3 -1385 11 -23 6 -57 29 -86 58 -39
39 -50 59 -61 105 -30 135 57 254 199 272 54 7 82 24 82 50 0 8 -5 47 -11 85
-49 316 249 595 563 528 138 -30 269 -131 326 -251 31 -65 52 -146 52 -200 0
-55 44 -83 91 -58 15 9 19 22 19 68 0 118 -56 262 -136 351 -54 60 -54 73 -3
176 110 225 375 353 621 300z"/>
<path d="M1167 1462 c-15 -16 -17 -49 -17 -260 l0 -242 -183 0 -183 0 -34 52
c-45 67 -101 98 -180 98 -49 0 -65 -5 -106 -32 -69 -47 -97 -104 -91 -186 11
-139 127 -220 264 -181 52 14 119 73 129 113 l6 25 215 3 215 3 29 33 29 32 0
270 c0 256 -1 270 -19 280 -29 15 -56 12 -74 -8z m-526 -488 c44 -40 32 -112
-27 -150 -21 -14 -31 -15 -65 -5 -73 22 -89 104 -31 158 22 20 34 24 65 20 21
-3 47 -13 58 -23z"/>
<path d="M1457 1462 c-15 -16 -17 -48 -17 -240 0 -187 2 -223 16 -236 21 -21
57 -20 77 2 15 16 17 48 17 239 0 200 -2 221 -18 236 -24 22 -55 21 -75 -1z"/>
<path d="M1747 1462 c-15 -16 -17 -49 -17 -260 l0 -241 -35 -17 c-39 -18 -91
-73 -106 -111 -5 -13 -9 -47 -9 -75 0 -178 208 -271 340 -152 104 94 87 258
-35 329 l-45 27 0 237 c0 198 -3 240 -16 259 -18 27 -55 29 -77 4z m84 -622
c28 -16 51 -67 44 -99 -7 -32 -39 -65 -72 -75 -28 -9 -88 16 -102 42 -44 82
49 175 130 132z"/>
<path d="M2034 1466 c-18 -13 -19 -30 -22 -228 -3 -240 2 -261 55 -266 58 -6
63 14 63 255 0 200 -1 214 -20 233 -24 24 -49 25 -76 6z"/>
<path d="M2320 1460 c-19 -19 -20 -33 -20 -265 0 -359 -12 -345 290 -345 200
0 201 0 209 -23 27 -71 111 -127 191 -127 110 0 210 98 210 205 0 71 -62 164
-127 192 -42 17 -137 17 -172 -1 -33 -18 -96 -86 -106 -115 -6 -20 -12 -21
-190 -21 l-184 0 -3 246 c-3 230 -4 247 -22 260 -27 19 -52 18 -76 -6z m729
-486 c26 -21 31 -33 31 -68 0 -51 -29 -84 -83 -93 -31 -5 -40 -1 -67 25 -43
43 -43 100 1 136 17 15 43 26 59 26 16 0 42 -11 59 -26z"/>
</g>
</svg>
