<?xml version="1.0" standalone="no"?>
<!DOCTYPE svg PUBLIC "-//W3C//DTD SVG 20010904//EN"
 "http://www.w3.org/TR/2001/REC-SVG-20010904/DTD/svg10.dtd">
<svg version="1.0" xmlns="http://www.w3.org/2000/svg"
 width="512.000000pt" height="512.000000pt" viewBox="0 0 512.000000 512.000000"
 preserveAspectRatio="xMidYMid meet">

<g transform="translate(0.000000,512.000000) scale(0.100000,-0.100000)"
fill="#000000" stroke="none">
<path d="M1352 4243 c-5 -10 -40 -110 -77 -223 -37 -113 -70 -208 -74 -212 -4
-4 -29 34 -56 85 -26 50 -53 95 -59 99 -6 4 -55 8 -108 8 -83 0 -99 -3 -107
-18 -6 -11 -6 -24 0 -35 8 -14 25 -17 97 -17 l87 0 63 -119 c62 -118 87 -146
107 -118 5 8 42 107 80 221 39 113 72 206 75 206 3 0 34 -84 70 -186 35 -103
70 -189 78 -192 24 -9 41 20 106 183 l64 159 35 -71 c20 -39 43 -73 52 -77 9
-3 53 -6 97 -6 l80 0 56 -120 c56 -119 75 -142 98 -118 7 7 48 114 92 238 l80
224 52 -104 c29 -58 58 -108 64 -112 6 -4 84 -8 174 -8 l163 0 57 -90 c54 -85
84 -112 102 -93 5 4 38 80 75 168 37 88 70 163 74 168 4 4 31 -25 60 -63 l54
-70 355 2 c323 3 356 5 366 20 25 40 2 43 -357 46 l-342 3 -63 85 c-34 46 -69
84 -77 84 -21 0 -35 -26 -106 -197 l-63 -152 -53 79 -53 80 -168 0 -167 0 -65
128 c-94 184 -91 186 -191 -93 -43 -121 -80 -224 -82 -228 -1 -5 -25 35 -52
90 l-50 98 -93 3 -92 3 -45 90 c-46 90 -66 112 -88 90 -6 -6 -39 -80 -73 -164
-36 -87 -65 -146 -68 -137 -3 8 -34 96 -69 195 -53 152 -66 180 -84 183 -13 2
-25 -4 -31 -15z"/>
<path d="M3364 3819 c-65 -47 -115 -153 -146 -312 -25 -119 -19 -155 28 -196
30 -27 43 -31 89 -31 l55 0 0 -355 0 -356 -42 40 c-47 46 -103 75 -185 96
-108 28 -130 16 -119 -66 22 -166 136 -297 285 -329 l61 -13 0 -318 0 -319
-310 0 -310 0 0 49 c0 48 0 48 38 54 64 9 148 46 194 87 52 45 101 132 123
215 32 125 18 142 -96 119 -88 -18 -157 -54 -216 -110 l-43 -41 0 66 c0 36 7
97 17 135 30 124 -7 247 -102 343 -62 62 -170 120 -190 103 -22 -18 -38 -118
-32 -198 10 -132 78 -238 193 -303 l54 -31 -2 -242 -3 -241 -223 -3 -222 -2 0
114 c0 63 5 127 11 143 19 50 13 172 -11 236 -39 103 -197 245 -262 235 -34
-5 -50 -73 -45 -184 7 -146 66 -248 183 -315 l54 -30 0 -99 0 -99 -137 -3
-138 -3 0 -25 0 -25 881 -3 c778 -2 883 0 888 13 14 39 -2 45 -115 45 l-109 0
0 94 0 93 42 7 c163 26 279 157 304 343 9 68 -7 77 -97 58 -89 -18 -146 -45
-201 -95 l-48 -42 0 320 0 319 48 7 c145 19 258 140 293 312 18 88 12 98 -59
91 -80 -7 -165 -42 -228 -93 l-54 -44 0 125 0 125 49 0 c62 0 111 32 128 82
21 63 -27 279 -82 373 -56 95 -130 128 -191 84z m100 -69 c49 -44 98 -179 113
-313 9 -90 -2 -97 -148 -97 -133 0 -147 3 -160 37 -23 62 67 348 122 386 31
22 33 22 73 -13z m265 -708 c-39 -123 -121 -201 -228 -218 l-41 -7 0 34 c1 45
33 116 73 157 37 39 110 79 164 90 45 10 50 0 32 -56z m-501 -427 c55 -26 79
-45 104 -80 38 -53 56 -98 57 -137 1 -25 -2 -28 -32 -28 -46 0 -131 45 -167
88 -36 44 -66 105 -75 155 -7 34 -5 37 17 37 13 0 56 -16 96 -35z m-635 -41
c51 -37 105 -105 124 -157 14 -38 16 -166 4 -186 -13 -21 -104 40 -141 94 -31
45 -60 137 -60 191 0 41 11 94 19 94 3 0 28 -16 54 -36z m-470 -329 c66 -64
90 -118 94 -209 5 -96 -4 -115 -41 -98 -46 21 -113 91 -134 140 -26 59 -37
137 -28 196 l7 45 33 -20 c18 -11 50 -35 69 -54z m1617 -65 c0 -39 -42 -129
-80 -173 -39 -43 -101 -78 -167 -92 -32 -6 -33 -6 -33 27 0 102 109 217 235
248 45 12 45 12 45 -10z m-673 -85 c-10 -61 -58 -154 -99 -191 -42 -38 -105
-69 -163 -80 -34 -6 -35 -6 -35 27 0 19 12 59 26 89 42 90 97 137 202 171 76
24 75 24 69 -16z"/>
<path d="M1053 3540 c-48 -11 -119 -56 -144 -91 -47 -67 -49 -89 -49 -630 0
-279 3 -514 6 -523 5 -13 48 -23 56 -13 1 1 5 247 8 547 l5 545 23 33 c13 18
41 41 62 52 38 20 63 20 1074 20 569 0 1041 3 1050 6 22 8 20 41 -3 54 -23 12
-2037 13 -2088 0z"/>
<path d="M3708 3539 c-22 -13 -23 -45 -2 -53 9 -3 117 -6 240 -6 204 0 228 -2
264 -20 49 -25 77 -64 90 -126 7 -33 10 -371 8 -1009 -3 -918 -4 -962 -22
-998 -10 -21 -35 -50 -54 -65 l-35 -27 -1230 -5 c-1134 -5 -1231 -6 -1240 -22
-8 -12 -7 -21 2 -32 12 -14 130 -16 1210 -16 951 0 1207 3 1247 13 64 17 118
58 152 116 l27 46 0 1020 0 1020 -27 46 c-34 58 -88 99 -152 116 -62 16 -452
18 -478 2z"/>
<path d="M1337 3330 c-46 -14 -98 -60 -118 -104 -17 -38 -19 -72 -19 -452 0
-354 2 -413 15 -424 12 -10 18 -10 30 0 13 11 15 69 15 414 0 442 0 444 63
490 28 21 38 21 915 26 l887 5 0 25 0 25 -880 2 c-484 1 -893 -2 -908 -7z"/>
<path d="M3724 3325 c-13 -33 3 -43 80 -47 85 -4 120 -22 148 -79 17 -32 18
-93 18 -849 0 -790 -1 -816 -20 -847 -10 -18 -31 -40 -47 -50 -26 -17 -87 -18
-1098 -23 l-1070 -5 0 -25 0 -25 1082 0 1081 0 44 30 c25 18 52 49 66 75 l22
44 0 831 c0 784 -1 832 -19 870 -36 80 -103 115 -219 115 -46 0 -64 -4 -68
-15z"/>
<path d="M1500 3139 c-32 -13 -78 -56 -96 -91 -17 -32 -18 -105 -3 -145 25
-66 88 -106 166 -106 184 0 238 249 73 333 -42 21 -99 25 -140 9z m103 -60
c64 -33 90 -92 67 -150 -19 -45 -56 -69 -107 -69 -38 0 -50 5 -79 34 -26 26
-34 42 -34 70 0 50 23 90 62 109 39 20 62 21 91 6z"/>
<path d="M1862 3138 c-17 -17 -17 -599 0 -616 9 -9 76 -12 240 -12 214 0 228
1 238 19 5 11 10 69 10 130 l0 110 205 3 c170 2 207 6 215 18 5 8 10 43 10 78
l0 62 203 0 c145 0 206 3 215 12 7 7 12 44 12 98 0 54 -5 91 -12 98 -17 17
-1319 17 -1336 0z m418 -308 l0 -260 -182 2 -183 3 -3 245 c-1 134 0 250 3
257 3 10 48 13 185 13 l180 0 0 -260z m430 135 l0 -125 -180 0 -180 0 0 125 0
125 180 0 180 0 0 -125z m438 78 l3 -43 -185 0 -186 0 0 45 0 45 183 -2 182
-3 3 -42z"/>
<path d="M1500 2681 c-70 -37 -75 -52 -78 -252 l-3 -180 -22 8 c-42 15 -105 8
-137 -15 -30 -23 -31 -23 -58 -4 -65 47 -140 36 -195 -28 -24 -29 -37 -36 -47
-30 -8 6 -38 10 -67 10 -44 0 -58 -5 -88 -31 -19 -17 -40 -47 -46 -67 -7 -24
-9 -125 -7 -287 3 -247 3 -251 30 -308 15 -31 50 -81 77 -110 48 -50 51 -57
51 -105 l0 -52 -33 0 c-52 0 -57 -12 -57 -131 0 -84 3 -111 16 -123 19 -20 19
-20 38 0 12 12 16 36 16 100 l0 84 340 0 340 0 0 -84 c0 -64 4 -88 16 -100 19
-20 19 -20 38 0 12 12 16 38 16 115 0 120 -8 139 -55 139 l-35 0 0 55 c0 52 2
57 49 104 26 27 61 75 77 107 l29 59 0 520 c0 502 -1 521 -20 554 -39 65 -119
88 -185 52z m123 -73 c16 -19 17 -59 17 -532 l0 -512 -25 -50 c-13 -27 -45
-69 -70 -92 -46 -45 -65 -88 -65 -154 l0 -38 -255 0 -255 0 0 66 0 65 -55 58
c-95 100 -99 117 -102 391 -3 292 4 320 84 320 55 0 67 -19 73 -116 4 -66 9
-89 22 -97 12 -8 21 -7 32 2 13 11 16 36 16 127 0 133 11 154 78 154 65 0 76
-21 82 -164 l5 -121 25 0 25 0 5 121 c6 142 17 164 80 164 63 0 74 -22 80
-163 5 -110 7 -122 24 -125 43 -9 46 13 40 342 -6 336 -4 347 46 373 31 16 70
8 93 -19z"/>
</g>
</svg>
