<?xml version="1.0" standalone="no"?>
<!DOCTYPE svg PUBLIC "-//W3C//DTD SVG 20010904//EN"
 "http://www.w3.org/TR/2001/REC-SVG-20010904/DTD/svg10.dtd">
<svg version="1.0" xmlns="http://www.w3.org/2000/svg"
 width="512.000000pt" height="512.000000pt" viewBox="0 0 512.000000 512.000000"
 preserveAspectRatio="xMidYMid meet">

<g transform="translate(0.000000,512.000000) scale(0.100000,-0.100000)"
fill="#000000" stroke="none">
<path d="M1083 4430 c-12 -5 -26 -18 -32 -29 -8 -13 -11 -282 -11 -851 l0
-831 25 -24 c32 -33 78 -33 110 0 l25 24 0 781 0 780 1800 0 1800 0 0 -1280 0
-1280 -579 0 c-570 0 -579 0 -605 -21 -37 -29 -37 -89 1 -118 26 -21 30 -21
666 -19 l639 3 19 24 c19 23 19 55 17 1417 -3 1322 -4 1394 -21 1411 -17 17
-109 18 -1925 20 -1087 1 -1916 -2 -1929 -7z"/>
<path d="M1483 4030 c-12 -5 -26 -18 -32 -29 -8 -13 -11 -202 -11 -579 0 -551
0 -560 21 -586 16 -20 29 -26 59 -26 30 0 43 6 59 26 19 25 21 40 21 198 l0
171 194 194 194 194 221 -331 c236 -354 239 -358 301 -332 26 11 46 43 137
225 l107 212 164 -99 c170 -102 206 -117 238 -100 11 6 64 85 119 176 55 91
103 166 107 166 3 0 120 -97 258 -215 207 -176 258 -215 283 -215 24 0 48 18
132 100 l102 100 164 -197 c90 -109 175 -208 188 -220 32 -30 75 -30 106 2 50
49 43 61 -186 337 -116 139 -218 259 -227 266 -9 6 -29 12 -45 12 -25 0 -50
-19 -136 -104 l-106 -105 -263 225 c-279 238 -297 249 -340 206 -11 -11 -63
-93 -117 -183 -54 -90 -99 -165 -100 -167 -1 -1 -81 45 -178 103 -96 58 -186
105 -199 105 -13 0 -32 -6 -43 -14 -11 -8 -60 -95 -110 -195 -49 -100 -92
-181 -96 -181 -3 0 -98 138 -209 306 -112 168 -212 310 -221 315 -50 26 -66
15 -255 -173 l-183 -181 -3 281 c-3 308 -3 307 -63 317 -17 2 -40 0 -52 -5z"/>
<path d="M1710 2754 c-480 -58 -963 -343 -1398 -824 -122 -134 -152 -176 -152
-211 0 -53 221 -300 436 -488 316 -277 613 -438 950 -517 106 -25 137 -28 294
-28 193 0 284 15 463 74 386 129 808 440 1144 843 96 115 96 119 -4 239 -103
125 -326 345 -445 441 -292 233 -589 384 -881 448 -89 19 -326 33 -407 23z
m405 -188 c298 -73 557 -218 865 -481 93 -80 308 -298 337 -342 20 -31 15 -38
-143 -203 -559 -579 -1101 -788 -1676 -645 -279 69 -593 259 -877 531 -146
140 -271 278 -271 300 0 23 331 351 446 442 307 241 602 381 889 422 106 15
318 3 430 -24z"/>
<path d="M1735 2431 c-293 -47 -506 -235 -587 -517 -33 -116 -31 -298 4 -406
39 -119 92 -204 182 -294 248 -248 613 -284 906 -89 225 150 352 428 311 685
-42 259 -169 443 -383 551 -117 59 -307 90 -433 70z m223 -165 c294 -63 490
-364 428 -656 -48 -229 -213 -391 -441 -436 -246 -48 -499 75 -602 291 -109
231 -71 474 103 650 133 134 326 191 512 151z"/>
<path d="M3436 2099 c-37 -29 -37 -89 0 -118 26 -21 35 -21 591 -21 l564 0 24
25 c16 15 25 36 25 55 0 19 -9 40 -25 55 l-24 25 -564 0 c-556 0 -565 0 -591
-21z"/>
</g>
</svg>
