<?xml version="1.0" standalone="no"?>
<!DOCTYPE svg PUBLIC "-//W3C//DTD SVG 20010904//EN"
 "http://www.w3.org/TR/2001/REC-SVG-20010904/DTD/svg10.dtd">
<svg version="1.0" xmlns="http://www.w3.org/2000/svg"
 width="512.000000pt" height="512.000000pt" viewBox="0 0 512.000000 512.000000"
 preserveAspectRatio="xMidYMid meet">

<g transform="translate(0.000000,512.000000) scale(0.100000,-0.100000)"
fill="#000000" stroke="none">
<path d="M395 4964 c-203 -72 -225 -355 -35 -458 70 -38 132 -43 200 -16 68
27 122 78 150 141 l21 49 220 0 220 0 -3 -62 -3 -63 -67 -5 c-57 -4 -72 -9
-95 -33 -27 -26 -28 -33 -33 -145 -5 -102 -9 -123 -31 -162 -35 -60 -219 -408
-219 -414 0 -2 56 -110 125 -239 l125 -236 0 -98 c0 -147 29 -183 146 -183
l54 0 0 -70 0 -70 -444 0 c-433 0 -444 0 -470 -21 l-26 -20 0 -234 c0 -128 3
-241 6 -250 17 -45 141 -60 244 -29 49 14 74 36 291 245 l238 230 78 -3 78 -3
5 -74 c4 -56 9 -77 23 -85 34 -22 52 4 57 85 l5 74 334 5 c304 5 335 7 345 23
8 12 8 22 0 35 -10 15 -41 17 -345 22 l-334 5 0 65 0 65 67 6 c107 9 128 40
128 184 0 93 1 99 39 168 21 40 69 131 106 202 37 72 72 136 78 143 7 9 92 12
386 10 l376 -3 0 -655 0 -655 -390 -5 c-424 -5 -420 -5 -455 -63 -19 -31 -20
-55 -20 -562 0 -507 1 -531 20 -562 35 -58 31 -58 455 -63 l390 -5 0 -305 0
-305 -360 -5 c-391 -5 -390 -5 -425 -63 -17 -28 -20 -51 -20 -182 0 -104 4
-155 12 -163 9 -9 269 -12 1109 -12 l1098 0 15 22 c12 17 16 49 16 136 0 137
-12 191 -52 229 l-29 28 -365 3 -364 3 0 309 0 310 383 0 c361 0 384 1 414 20
71 43 68 15 68 605 0 590 3 562 -68 605 -30 19 -53 20 -414 20 l-383 0 0 660
0 660 389 0 389 0 4 -137 c4 -158 14 -185 87 -218 l41 -18 0 -352 c0 -260 3
-354 12 -363 9 -9 111 -12 400 -12 373 0 388 1 398 19 6 13 10 146 10 365 l0
346 34 14 c18 8 45 29 59 48 l27 34 0 494 1 493 -29 36 c-49 61 -59 62 -522
59 -455 -3 -454 -3 -496 -65 -17 -26 -19 -53 -22 -340 l-3 -313 -390 0 c-214
0 -392 -1 -396 -2 -5 -2 -55 92 -113 209 -58 117 -116 224 -129 238 -29 30
-93 34 -129 9 -13 -9 -70 -109 -132 -235 l-110 -219 -384 0 -385 0 -39 73
c-22 39 -73 133 -113 207 l-72 135 -6 110 c-9 154 -25 177 -130 185 l-66 5 -3
63 -3 62 199 0 199 0 17 -43 c31 -83 123 -153 214 -164 104 -11 235 79 263
180 33 124 -26 247 -146 303 -70 33 -127 31 -202 -6 -65 -33 -102 -72 -132
-142 l-18 -43 -196 3 -196 3 -3 76 c-2 59 -7 78 -20 87 -13 8 -23 8 -35 0 -14
-9 -19 -28 -21 -88 l-3 -76 -222 2 -221 3 -10 33 c-14 51 -83 122 -143 149
-60 26 -118 28 -178 7z m177 -98 c44 -29 68 -80 68 -145 0 -51 -4 -62 -35 -98
-43 -51 -81 -67 -146 -61 -62 6 -97 31 -127 89 -65 125 38 264 178 239 19 -4
47 -14 62 -24z m1421 -3 c75 -48 97 -153 47 -226 -39 -57 -68 -72 -140 -72
-79 0 -122 26 -151 89 -25 54 -24 103 4 150 53 93 151 117 240 59z m-633 -473
l0 -80 -150 0 -150 0 0 73 c0 41 3 77 7 80 3 4 71 7 150 7 l143 0 0 -80z
m3464 64 c11 -11 16 -35 16 -80 l0 -64 -450 0 -450 0 0 68 c0 40 5 73 12 80 9
9 119 12 434 12 371 0 424 -2 438 -16z m-1952 -439 l107 -210 1 -688 0 -687
-227 2 -228 3 -3 676 -2 676 105 214 c57 118 107 218 111 222 4 4 13 6 18 4 6
-1 59 -97 118 -212z m-1447 127 c22 -42 65 -125 97 -184 32 -58 58 -109 58
-112 0 -3 -103 -6 -229 -6 -195 0 -232 -2 -245 -16 -22 -21 -20 -40 6 -58 19
-13 60 -16 245 -16 123 0 223 -2 223 -4 0 -5 -57 -113 -143 -271 l-55 -100
-173 0 -173 0 -94 175 c-51 96 -96 181 -99 188 -4 8 8 12 42 12 62 0 85 14 85
49 0 34 -14 41 -81 41 -27 0 -49 3 -49 6 0 7 162 312 187 352 13 21 18 22 186
22 l172 0 40 -78z m3415 -279 c0 -318 -2 -358 -17 -375 -15 -17 -42 -18 -438
-18 -314 0 -424 3 -433 12 -9 9 -12 106 -12 375 l0 363 450 0 450 0 0 -357z
m-130 -563 l0 -80 -322 2 -323 3 -3 64 c-2 35 -1 70 2 77 4 11 65 14 326 14
l320 0 0 -80z m-3355 -95 l0 -80 -145 0 -145 0 -3 83 -3 83 148 -3 148 -3 0
-80z m3355 -145 l0 -80 -325 0 -325 0 0 73 c0 41 3 77 7 80 3 4 150 7 325 7
l318 0 0 -80z m0 -250 l0 -80 -322 2 -323 3 -3 64 c-2 35 -1 70 2 77 4 11 65
14 326 14 l320 0 0 -80z m-3840 1 c0 -15 -377 -370 -404 -381 -15 -5 -56 -10
-92 -10 l-64 0 0 193 c0 107 3 197 7 200 10 10 553 8 553 -2z m2962 -478 c17
-15 18 -45 18 -529 l0 -513 -22 -15 c-20 -14 -139 -16 -1080 -16 -1045 0
-1058 0 -1078 20 -19 19 -20 33 -20 527 0 457 2 508 17 525 15 17 62 18 1081
18 977 0 1067 -1 1084 -17z m-854 -1460 l-3 -308 -225 0 -225 0 -3 295 c-1
162 0 300 3 307 3 10 58 13 230 13 l225 0 -2 -307z m791 -410 c20 -17 22 -26
19 -128 l-3 -110 -1035 0 -1035 0 -3 107 c-2 97 -1 109 18 128 20 20 28 20
1019 20 936 0 1000 -1 1020 -17z"/>
<path d="M2132 2228 c-8 -8 -12 -66 -12 -195 l0 -183 -164 0 c-136 0 -167 -3
-180 -16 -22 -21 -20 -40 6 -58 18 -13 54 -16 180 -16 l158 0 0 -179 c0 -150
3 -182 16 -195 8 -9 21 -16 28 -16 32 0 36 24 36 207 l0 183 255 0 255 0 0
-179 c0 -150 3 -182 16 -195 8 -9 21 -16 28 -16 32 0 36 24 36 207 l0 183 255
0 255 0 2 -186 c3 -165 5 -188 21 -198 12 -8 22 -8 35 0 15 10 17 33 20 198
l2 186 158 0 c168 0 202 8 202 50 0 33 -33 40 -199 40 l-161 0 -2 186 c-3 165
-5 188 -20 198 -13 8 -23 8 -35 0 -16 -10 -18 -33 -21 -198 l-2 -186 -255 0
-255 0 -2 186 c-3 165 -5 188 -20 198 -13 8 -23 8 -35 0 -16 -10 -18 -33 -21
-198 l-2 -186 -253 2 -252 3 -3 185 c-2 132 -6 186 -15 192 -18 11 -41 10 -55
-4z"/>
</g>
</svg>
